SplineFontDB: 3.2
FontName: EscapingGanymede
FullName: EscapingGanymede
FamilyName: EscapingGanymede
Weight: Book
Copyright: Copyright (c) 2020, eug
Version: 00.01.2020
ItalicAngle: 0
UnderlinePosition: -100
UnderlineWidth: 50
Ascent: 800
Descent: 320
InvalidEm: 0
sfntRevision: 0x0000028f
LayerCount: 2
Layer: 0 1 "Back" 1
Layer: 1 1 "Fore" 0
XUID: [1021 804 909846781 5701047]
StyleMap: 0x0000
FSType: 0
OS2Version: 4
OS2_WeightWidthSlopeOnly: 0
OS2_UseTypoMetrics: 1
CreationTime: 1608844006
ModificationTime: 1743455966
PfmFamily: 17
TTFWeight: 400
TTFWidth: 5
LineGap: 90
VLineGap: 0
Panose: 2 0 5 9 0 0 0 0 0 0
OS2TypoAscent: 800
OS2TypoAOffset: 0
OS2TypoDescent: -200
OS2TypoDOffset: 0
OS2TypoLinegap: 90
OS2WinAscent: 804
OS2WinAOffset: 0
OS2WinDescent: 63
OS2WinDOffset: 0
HheadAscent: 804
HheadAOffset: 0
HheadDescent: -200
HheadDOffset: 0
OS2SubXSize: 650
OS2SubYSize: 699
OS2SubXOff: 0
OS2SubYOff: 140
OS2SupXSize: 650
OS2SupYSize: 699
OS2SupXOff: 0
OS2SupYOff: 479
OS2StrikeYSize: 49
OS2StrikeYPos: 258
OS2CapHeight: 666
OS2XHeight: 666
OS2Vendor: 'PfEd'
OS2CodePages: 00000001.00000000
OS2UnicodeRanges: 00000003.00000000.00000000.00000000
MarkAttachClasses: 1
DEI: 91125
ShortTable: cvt  2
  33
  633
EndShort
ShortTable: maxp 16
  1
  0
  257
  36
  9
  0
  0
  2
  0
  1
  1
  0
  64
  46
  0
  0
EndShort
LangName: 1033 "" "" "Regular" "FontForge 2.0 : EscapingGanymede : 25-12-2020" "" "Version 00.01.2020"
GaspTable: 1 65535 2 0
Encoding: UnicodeBmp
UnicodeInterp: none
NameList: AGL For New Fonts
DisplaySize: -48
AntiAlias: 1
FitToEm: 0
WinInfo: 128 16 4
BeginChars: 65537 257

StartChar: .notdef
Encoding: 65536 -1 0
Width: 960
GlyphClass: 1
Flags: W
LayerCount: 2
Fore
SplineSet
33 0 m 1,0,-1
 33 666 l 1,1,-1
 298 666 l 1,2,-1
 298 0 l 1,3,-1
 33 0 l 1,0,-1
66 33 m 1,4,-1
 265 33 l 1,5,-1
 265 633 l 1,6,-1
 66 633 l 1,7,-1
 66 33 l 1,4,-1
EndSplineSet
EndChar

StartChar: uni0000
Encoding: 0 0 1
Width: 960
GlyphClass: 1
Flags: W
LayerCount: 2
Fore
SplineSet
0 804 m 1,0,-1
 1000 804 l 1,1,-1
 1000 0 l 1,2,-1
 0 0 l 1,3,-1
 0 804 l 1,0,-1
EndSplineSet
EndChar

StartChar: uni0001
Encoding: 1 1 3
Width: 960
GlyphClass: 1
Flags: W
LayerCount: 2
Fore
SplineSet
851 99 m 1,0,-1
 851 -54 l 1,1,-1
 143 -54 l 1,2,-1
 143 99 l 1,3,-1
 851 99 l 1,0,-1
EndSplineSet
EndChar

StartChar: uni0002
Encoding: 2 2 4
Width: 960
GlyphClass: 1
Flags: W
LayerCount: 2
Fore
SplineSet
851 99 m 1,0,-1
 851 -54 l 1,1,-1
 143 -54 l 1,2,-1
 143 99 l 1,3,-1
 851 99 l 1,0,-1
EndSplineSet
EndChar

StartChar: uni0003
Encoding: 3 3 5
Width: 960
GlyphClass: 1
Flags: W
LayerCount: 2
Fore
SplineSet
851 99 m 1,0,-1
 851 -54 l 1,1,-1
 143 -54 l 1,2,-1
 143 99 l 1,3,-1
 851 99 l 1,0,-1
EndSplineSet
EndChar

StartChar: uni0004
Encoding: 4 4 6
Width: 960
GlyphClass: 1
Flags: W
LayerCount: 2
Fore
SplineSet
851 99 m 1,0,-1
 851 -54 l 1,1,-1
 143 -54 l 1,2,-1
 143 99 l 1,3,-1
 851 99 l 1,0,-1
EndSplineSet
EndChar

StartChar: uni0005
Encoding: 5 5 7
Width: 960
GlyphClass: 1
Flags: W
LayerCount: 2
Fore
SplineSet
851 99 m 1,0,-1
 851 -54 l 1,1,-1
 143 -54 l 1,2,-1
 143 99 l 1,3,-1
 851 99 l 1,0,-1
EndSplineSet
EndChar

StartChar: uni0006
Encoding: 6 6 8
Width: 960
GlyphClass: 1
Flags: W
LayerCount: 2
Fore
SplineSet
851 99 m 1,0,-1
 851 -54 l 1,1,-1
 143 -54 l 1,2,-1
 143 99 l 1,3,-1
 851 99 l 1,0,-1
EndSplineSet
EndChar

StartChar: uni0007
Encoding: 7 7 9
Width: 960
GlyphClass: 1
Flags: W
LayerCount: 2
Fore
SplineSet
851 99 m 1,0,-1
 851 -54 l 1,1,-1
 143 -54 l 1,2,-1
 143 99 l 1,3,-1
 851 99 l 1,0,-1
EndSplineSet
EndChar

StartChar: uni0008
Encoding: 8 8 10
Width: 960
GlyphClass: 1
Flags: W
LayerCount: 2
Fore
SplineSet
851 99 m 1,0,-1
 851 -54 l 1,1,-1
 143 -54 l 1,2,-1
 143 99 l 1,3,-1
 851 99 l 1,0,-1
EndSplineSet
EndChar

StartChar: uni000B
Encoding: 11 11 13
Width: 960
GlyphClass: 1
Flags: W
LayerCount: 2
Fore
SplineSet
851 99 m 1,0,-1
 851 -54 l 1,1,-1
 143 -54 l 1,2,-1
 143 99 l 1,3,-1
 851 99 l 1,0,-1
EndSplineSet
EndChar

StartChar: uni000C
Encoding: 12 12 14
Width: 960
GlyphClass: 1
Flags: W
LayerCount: 2
Fore
SplineSet
851 99 m 1,0,-1
 851 -54 l 1,1,-1
 143 -54 l 1,2,-1
 143 99 l 1,3,-1
 851 99 l 1,0,-1
EndSplineSet
EndChar

StartChar: uni000E
Encoding: 14 14 15
Width: 960
GlyphClass: 1
Flags: W
LayerCount: 2
Fore
SplineSet
851 99 m 1,0,-1
 851 -54 l 1,1,-1
 143 -54 l 1,2,-1
 143 99 l 1,3,-1
 851 99 l 1,0,-1
EndSplineSet
EndChar

StartChar: uni000F
Encoding: 15 15 16
Width: 960
GlyphClass: 1
Flags: W
LayerCount: 2
Fore
SplineSet
851 99 m 1,0,-1
 851 -54 l 1,1,-1
 143 -54 l 1,2,-1
 143 99 l 1,3,-1
 851 99 l 1,0,-1
EndSplineSet
EndChar

StartChar: uni0010
Encoding: 16 16 17
Width: 960
GlyphClass: 1
Flags: W
LayerCount: 2
Fore
SplineSet
851 99 m 1,0,-1
 851 -54 l 1,1,-1
 143 -54 l 1,2,-1
 143 99 l 1,3,-1
 851 99 l 1,0,-1
EndSplineSet
EndChar

StartChar: uni0011
Encoding: 17 17 18
Width: 960
GlyphClass: 1
Flags: W
LayerCount: 2
Fore
SplineSet
851 99 m 1,0,-1
 851 -54 l 1,1,-1
 143 -54 l 1,2,-1
 143 99 l 1,3,-1
 851 99 l 1,0,-1
EndSplineSet
EndChar

StartChar: uni0012
Encoding: 18 18 19
Width: 960
GlyphClass: 1
Flags: W
LayerCount: 2
Fore
SplineSet
851 99 m 1,0,-1
 851 -54 l 1,1,-1
 143 -54 l 1,2,-1
 143 99 l 1,3,-1
 851 99 l 1,0,-1
EndSplineSet
EndChar

StartChar: uni0013
Encoding: 19 19 20
Width: 960
GlyphClass: 1
Flags: W
LayerCount: 2
Fore
SplineSet
851 99 m 1,0,-1
 851 -54 l 1,1,-1
 143 -54 l 1,2,-1
 143 99 l 1,3,-1
 851 99 l 1,0,-1
EndSplineSet
EndChar

StartChar: uni0014
Encoding: 20 20 21
Width: 960
GlyphClass: 1
Flags: W
LayerCount: 2
Fore
SplineSet
851 99 m 1,0,-1
 851 -54 l 1,1,-1
 143 -54 l 1,2,-1
 143 99 l 1,3,-1
 851 99 l 1,0,-1
EndSplineSet
EndChar

StartChar: uni0015
Encoding: 21 21 22
Width: 960
GlyphClass: 1
Flags: W
LayerCount: 2
Fore
SplineSet
851 99 m 1,0,-1
 851 -54 l 1,1,-1
 143 -54 l 1,2,-1
 143 99 l 1,3,-1
 851 99 l 1,0,-1
EndSplineSet
EndChar

StartChar: uni0016
Encoding: 22 22 23
Width: 960
GlyphClass: 1
Flags: W
LayerCount: 2
Fore
SplineSet
851 99 m 1,0,-1
 851 -54 l 1,1,-1
 143 -54 l 1,2,-1
 143 99 l 1,3,-1
 851 99 l 1,0,-1
EndSplineSet
EndChar

StartChar: uni0017
Encoding: 23 23 24
Width: 960
GlyphClass: 1
Flags: W
LayerCount: 2
Fore
SplineSet
851 99 m 1,0,-1
 851 -54 l 1,1,-1
 143 -54 l 1,2,-1
 143 99 l 1,3,-1
 851 99 l 1,0,-1
EndSplineSet
EndChar

StartChar: uni0018
Encoding: 24 24 25
Width: 960
GlyphClass: 1
Flags: W
LayerCount: 2
Fore
SplineSet
851 99 m 1,0,-1
 851 -54 l 1,1,-1
 143 -54 l 1,2,-1
 143 99 l 1,3,-1
 851 99 l 1,0,-1
EndSplineSet
EndChar

StartChar: uni0019
Encoding: 25 25 26
Width: 960
GlyphClass: 1
Flags: W
LayerCount: 2
Fore
SplineSet
851 99 m 1,0,-1
 851 -54 l 1,1,-1
 143 -54 l 1,2,-1
 143 99 l 1,3,-1
 851 99 l 1,0,-1
EndSplineSet
EndChar

StartChar: uni001A
Encoding: 26 26 27
Width: 960
GlyphClass: 1
Flags: W
LayerCount: 2
Fore
SplineSet
851 99 m 1,0,-1
 851 -54 l 1,1,-1
 143 -54 l 1,2,-1
 143 99 l 1,3,-1
 851 99 l 1,0,-1
EndSplineSet
EndChar

StartChar: uni001B
Encoding: 27 27 28
Width: 960
GlyphClass: 1
Flags: W
LayerCount: 2
Fore
SplineSet
851 99 m 1,0,-1
 851 -54 l 1,1,-1
 143 -54 l 1,2,-1
 143 99 l 1,3,-1
 851 99 l 1,0,-1
EndSplineSet
EndChar

StartChar: uni001C
Encoding: 28 28 29
Width: 960
GlyphClass: 1
Flags: W
LayerCount: 2
Fore
SplineSet
851 99 m 1,0,-1
 851 -54 l 1,1,-1
 143 -54 l 1,2,-1
 143 99 l 1,3,-1
 851 99 l 1,0,-1
EndSplineSet
EndChar

StartChar: uni001D
Encoding: 29 29 30
Width: 960
GlyphClass: 1
Flags: W
LayerCount: 2
Fore
SplineSet
851 99 m 1,0,-1
 851 -54 l 1,1,-1
 143 -54 l 1,2,-1
 143 99 l 1,3,-1
 851 99 l 1,0,-1
EndSplineSet
EndChar

StartChar: uni001E
Encoding: 30 30 31
Width: 960
GlyphClass: 1
Flags: W
LayerCount: 2
Fore
SplineSet
851 99 m 1,0,-1
 851 -54 l 1,1,-1
 143 -54 l 1,2,-1
 143 99 l 1,3,-1
 851 99 l 1,0,-1
EndSplineSet
EndChar

StartChar: uni001F
Encoding: 31 31 32
Width: 960
GlyphClass: 1
Flags: W
LayerCount: 2
Fore
SplineSet
851 99 m 1,0,-1
 851 -54 l 1,1,-1
 143 -54 l 1,2,-1
 143 99 l 1,3,-1
 851 99 l 1,0,-1
EndSplineSet
EndChar

StartChar: space
Encoding: 32 32 33
Width: 960
GlyphClass: 1
Flags: W
LayerCount: 2
Fore
SplineSet
851 99 m 1,0,-1
 851 -54 l 1,1,-1
 143 -54 l 1,2,-1
 143 99 l 1,3,-1
 851 99 l 1,0,-1
EndSplineSet
EndChar

StartChar: exclam
Encoding: 33 33 34
Width: 960
GlyphClass: 1
Flags: W
LayerCount: 2
Fore
SplineSet
160 480 m 1,0,-1
 160 800 l 1,1,-1
 480 800 l 1,2,-1
 480 640 l 1,3,-1
 640 640 l 1,4,-1
 640 480 l 1,5,-1
 480 480 l 1,6,-1
 480 320 l 1,7,-1
 320 320 l 1,8,-1
 320 480 l 1,9,-1
 160 480 l 1,0,-1
320 160 m 1,10,-1
 480 160 l 1,11,-1
 480 0 l 1,12,-1
 320 0 l 1,13,-1
 320 160 l 1,10,-1
EndSplineSet
EndChar

StartChar: quotedbl
Encoding: 34 34 35
Width: 960
GlyphClass: 1
Flags: W
LayerCount: 2
Fore
SplineSet
160 800 m 1,0,-1
 320 800 l 1,1,-1
 320 480 l 1,2,-1
 160 480 l 1,3,-1
 160 800 l 1,0,-1
480 800 m 5,4,-1
 640 800 l 5,5,-1
 640 480 l 5,6,-1
 480 480 l 5,7,-1
 480 800 l 5,4,-1
EndSplineSet
EndChar

StartChar: numbersign
Encoding: 35 35 36
Width: 960
GlyphClass: 1
Flags: W
LayerCount: 2
Fore
SplineSet
851 99 m 1,0,-1
 851 -54 l 1,1,-1
 143 -54 l 1,2,-1
 143 99 l 1,3,-1
 851 99 l 1,0,-1
EndSplineSet
EndChar

StartChar: dollar
Encoding: 36 36 37
Width: 960
GlyphClass: 1
Flags: W
LayerCount: 2
Fore
SplineSet
851 99 m 1,0,-1
 851 -54 l 1,1,-1
 143 -54 l 1,2,-1
 143 99 l 1,3,-1
 851 99 l 1,0,-1
EndSplineSet
EndChar

StartChar: percent
Encoding: 37 37 38
Width: 960
GlyphClass: 1
Flags: W
LayerCount: 2
Fore
SplineSet
851 99 m 1,0,-1
 851 -54 l 1,1,-1
 143 -54 l 1,2,-1
 143 99 l 1,3,-1
 851 99 l 1,0,-1
EndSplineSet
EndChar

StartChar: ampersand
Encoding: 38 38 39
Width: 960
GlyphClass: 1
Flags: W
LayerCount: 2
Fore
SplineSet
851 99 m 1,0,-1
 851 -54 l 1,1,-1
 143 -54 l 1,2,-1
 143 99 l 1,3,-1
 851 99 l 1,0,-1
EndSplineSet
EndChar

StartChar: quotesingle
Encoding: 39 39 40
Width: 960
GlyphClass: 1
Flags: W
LayerCount: 2
Fore
SplineSet
480 800 m 5,0,-1
 480 480 l 5,1,-1
 320 480 l 5,2,-1
 320 800 l 5,3,-1
 480 800 l 5,0,-1
EndSplineSet
EndChar

StartChar: parenleft
Encoding: 40 40 41
Width: 960
GlyphClass: 1
Flags: W
LayerCount: 2
Fore
SplineSet
320 0 m 1,0,-1
 480 0 l 1,1,-1
 480 -160 l 1,2,-1
 640 -160 l 1,3,-1
 640 0 l 1,4,-1
 480 0 l 1,5,-1
 480 640 l 1,6,-1
 640 640 l 1,7,-1
 640 800 l 1,8,-1
 480 800 l 1,9,-1
 480 640 l 1,10,-1
 320 640 l 1,11,-1
 320 0 l 1,0,-1
EndSplineSet
EndChar

StartChar: parenright
Encoding: 41 41 42
Width: 960
GlyphClass: 1
Flags: W
LayerCount: 2
Fore
SplineSet
640 640 m 1,0,-1
 480 640 l 1,1,-1
 480 800 l 1,2,-1
 320 800 l 1,3,-1
 320 640 l 1,4,-1
 480 640 l 1,5,-1
 480 0 l 1,6,-1
 320 0 l 1,7,-1
 320 -160 l 1,8,-1
 480 -160 l 1,9,-1
 480 0 l 1,10,-1
 640 0 l 1,11,-1
 640 640 l 1,0,-1
EndSplineSet
EndChar

StartChar: asterisk
Encoding: 42 42 43
Width: 960
GlyphClass: 1
Flags: W
LayerCount: 2
Fore
SplineSet
431 663 m 1,0,-1
 707 663 l 1,1,-1
 707 381 l 1,2,-1
 431 381 l 1,3,-1
 431 663 l 1,0,-1
EndSplineSet
EndChar

StartChar: plus
Encoding: 43 43 44
Width: 960
GlyphClass: 1
Flags: W
LayerCount: 2
Fore
SplineSet
851 99 m 1,0,-1
 851 -54 l 1,1,-1
 143 -54 l 1,2,-1
 143 99 l 1,3,-1
 851 99 l 1,0,-1
EndSplineSet
EndChar

StartChar: comma
Encoding: 44 44 45
Width: 960
GlyphClass: 1
Flags: W
LayerCount: 2
Fore
SplineSet
320 160 m 1,0,-1
 640 160 l 1,1,-1
 640 -160 l 1,2,-1
 480 -160 l 1,3,-1
 480 0 l 1,4,-1
 320 0 l 1,5,-1
 320 160 l 1,0,-1
EndSplineSet
EndChar

StartChar: hyphen
Encoding: 45 45 46
Width: 960
GlyphClass: 1
Flags: W
LayerCount: 2
Fore
SplineSet
160 480 m 5,0,-1
 640 480 l 1,1,-1
 640 320 l 1,2,-1
 160 320 l 5,3,-1
 160 480 l 5,0,-1
EndSplineSet
EndChar

StartChar: period
Encoding: 46 46 47
Width: 960
GlyphClass: 1
Flags: W
LayerCount: 2
Fore
SplineSet
320 160 m 1,0,-1
 640 160 l 1,1,-1
 640 0 l 1,2,-1
 320 0 l 1,3,-1
 320 160 l 1,0,-1
EndSplineSet
EndChar

StartChar: slash
Encoding: 47 47 48
Width: 960
GlyphClass: 1
Flags: W
LayerCount: 2
Fore
SplineSet
851 99 m 1,0,-1
 851 -54 l 1,1,-1
 143 -54 l 1,2,-1
 143 99 l 1,3,-1
 851 99 l 1,0,-1
EndSplineSet
EndChar

StartChar: zero
Encoding: 48 48 49
Width: 960
GlyphClass: 1
Flags: W
LayerCount: 2
Fore
SplineSet
0 160 m 1,0,-1
 0 640 l 1,1,-1
 160 640 l 1,2,-1
 160 320 l 1,3,-1
 320 320 l 1,4,-1
 320 480 l 1,5,-1
 480 480 l 1,6,-1
 480 640 l 1,7,-1
 160 640 l 1,8,-1
 160 800 l 1,9,-1
 640 800 l 1,10,-1
 640 640 l 1,11,-1
 800 640 l 1,12,-1
 800 160 l 1,13,-1
 640 160 l 1,14,-1
 640 480 l 1,15,-1
 480 480 l 1,16,-1
 480 320 l 1,17,-1
 320 320 l 1,18,-1
 320 160 l 1,19,-1
 640 160 l 1,20,-1
 640 0 l 1,21,-1
 160 0 l 1,22,-1
 160 160 l 1,23,-1
 0 160 l 1,0,-1
EndSplineSet
EndChar

StartChar: one
Encoding: 49 49 50
Width: 960
GlyphClass: 1
Flags: W
LayerCount: 2
Fore
SplineSet
0 480 m 1,0,-1
 0 640 l 1,1,-1
 160 640 l 1,2,-1
 160 800 l 1,3,-1
 480 800 l 1,4,-1
 480 160 l 1,5,-1
 640 160 l 1,6,-1
 640 320 l 1,7,-1
 800 320 l 1,8,-1
 800 0 l 1,9,-1
 160 0 l 1,10,-1
 160 160 l 1,11,-1
 320 160 l 1,12,-1
 320 480 l 1,13,-1
 0 480 l 1,0,-1
EndSplineSet
EndChar

StartChar: two
Encoding: 50 50 51
Width: 960
GlyphClass: 1
Flags: W
LayerCount: 2
Fore
SplineSet
0 480 m 5,0,-1
 0 800 l 1,1,-1
 640 800 l 1,2,-1
 640 640 l 1,3,-1
 800 640 l 1,4,-1
 800 480 l 1,5,-1
 640 480 l 1,6,-1
 640 320 l 1,7,-1
 480 320 l 1,8,-1
 480 160 l 1,9,-1
 800 160 l 1,10,-1
 800 0 l 1,11,-1
 160 0 l 1,12,-1
 160 160 l 1,13,-1
 320 160 l 1,14,-1
 320 320 l 1,15,-1
 480 320 l 1,16,-1
 480 480 l 1,17,-1
 640 480 l 1,18,-1
 640 640 l 1,19,-1
 160 640 l 1,20,-1
 160 480 l 1,21,-1
 0 480 l 5,0,-1
EndSplineSet
EndChar

StartChar: three
Encoding: 51 51 52
Width: 960
GlyphClass: 1
Flags: W
LayerCount: 2
Fore
SplineSet
0 480 m 1,0,-1
 0 800 l 1,1,-1
 800 800 l 1,2,-1
 800 640 l 1,3,-1
 640 640 l 1,4,-1
 640 320 l 1,5,-1
 800 320 l 1,6,-1
 800 160 l 1,7,-1
 640 160 l 1,8,-1
 640 0 l 1,9,-1
 160 0 l 1,10,-1
 160 160 l 1,11,-1
 640 160 l 1,12,-1
 640 320 l 1,13,-1
 320 320 l 1,14,-1
 320 480 l 1,15,-1
 480 480 l 1,16,-1
 480 640 l 1,17,-1
 160 640 l 1,18,-1
 160 480 l 1,19,-1
 0 480 l 1,0,-1
EndSplineSet
EndChar

StartChar: four
Encoding: 52 52 53
Width: 960
GlyphClass: 1
Flags: W
LayerCount: 2
Fore
SplineSet
0 320 m 1,0,-1
 0 640 l 1,1,-1
 160 640 l 1,2,-1
 160 480 l 1,3,-1
 320 480 l 1,4,-1
 320 800 l 1,5,-1
 480 800 l 1,6,-1
 480 480 l 1,7,-1
 800 480 l 1,8,-1
 800 320 l 1,9,-1
 480 320 l 1,10,-1
 480 0 l 1,11,-1
 320 0 l 1,12,-1
 320 320 l 1,13,-1
 0 320 l 1,0,-1
EndSplineSet
EndChar

StartChar: five
Encoding: 53 53 54
Width: 960
GlyphClass: 1
Flags: W
LayerCount: 2
Fore
SplineSet
0 320 m 1,0,-1
 0 800 l 1,1,-1
 640 800 l 1,2,-1
 640 640 l 1,3,-1
 160 640 l 1,4,-1
 160 480 l 1,5,-1
 640 480 l 1,6,-1
 640 320 l 1,7,-1
 800 320 l 1,8,-1
 800 160 l 1,9,-1
 640 160 l 1,10,-1
 640 0 l 1,11,-1
 160 0 l 1,12,-1
 160 160 l 1,13,-1
 640 160 l 1,14,-1
 640 320 l 1,15,-1
 0 320 l 1,0,-1
EndSplineSet
EndChar

StartChar: six
Encoding: 54 54 55
Width: 960
GlyphClass: 1
Flags: W
LayerCount: 2
Fore
SplineSet
0 160 m 1,0,-1
 0 480 l 1,1,-1
 160 480 l 1,2,-1
 160 640 l 1,3,-1
 320 640 l 1,4,-1
 320 800 l 1,5,-1
 800 800 l 1,6,-1
 800 640 l 1,7,-1
 320 640 l 1,8,-1
 320 480 l 1,9,-1
 160 480 l 1,10,-1
 160 160 l 1,11,-1
 640 160 l 1,12,-1
 640 320 l 1,13,-1
 320 320 l 1,14,-1
 320 480 l 1,15,-1
 640 480 l 1,16,-1
 640 320 l 1,17,-1
 800 320 l 1,18,-1
 800 160 l 1,19,-1
 640 160 l 1,20,-1
 640 0 l 1,21,-1
 160 0 l 1,22,-1
 160 160 l 1,23,-1
 0 160 l 1,0,-1
EndSplineSet
EndChar

StartChar: seven
Encoding: 55 55 56
Width: 960
GlyphClass: 1
Flags: W
LayerCount: 2
Fore
SplineSet
0 0 m 1,0,-1
 0 320 l 1,1,-1
 320 320 l 1,2,-1
 320 480 l 1,3,-1
 480 480 l 1,4,-1
 480 640 l 1,5,-1
 160 640 l 1,6,-1
 160 480 l 1,7,-1
 0 480 l 1,8,-1
 0 800 l 1,9,-1
 800 800 l 1,10,-1
 800 480 l 1,11,-1
 480 480 l 1,12,-1
 480 320 l 1,13,-1
 320 320 l 1,14,-1
 320 160 l 1,15,-1
 160 160 l 1,16,-1
 160 0 l 1,17,-1
 0 0 l 1,0,-1
EndSplineSet
EndChar

StartChar: eight
Encoding: 56 56 57
Width: 960
GlyphClass: 1
Flags: W
LayerCount: 2
Fore
SplineSet
0 160 m 1,0,-1
 0 320 l 1,1,-1
 160 320 l 1,2,-1
 160 480 l 1,3,-1
 0 480 l 1,4,-1
 0 640 l 1,5,-1
 160 640 l 1,6,-1
 160 800 l 1,7,-1
 480 800 l 1,8,-1
 480 640 l 1,9,-1
 160 640 l 1,10,-1
 160 480 l 1,11,-1
 480 480 l 1,12,-1
 480 640 l 1,13,-1
 640 640 l 1,14,-1
 640 320 l 1,15,-1
 800 320 l 1,16,-1
 800 160 l 1,17,-1
 640 160 l 1,18,-1
 640 320 l 1,19,-1
 160 320 l 1,20,-1
 160 160 l 1,21,-1
 640 160 l 1,22,-1
 640 0 l 1,23,-1
 160 0 l 1,24,-1
 160 160 l 1,25,-1
 0 160 l 1,0,-1
EndSplineSet
EndChar

StartChar: nine
Encoding: 57 57 58
Width: 960
GlyphClass: 1
Flags: W
LayerCount: 2
Fore
SplineSet
0 480 m 1,0,-1
 0 640 l 1,1,-1
 160 640 l 1,2,-1
 160 800 l 1,3,-1
 640 800 l 1,4,-1
 640 640 l 1,5,-1
 160 640 l 1,6,-1
 160 480 l 1,7,-1
 640 480 l 1,8,-1
 640 640 l 1,9,-1
 800 640 l 1,10,-1
 800 160 l 1,11,-1
 640 160 l 1,12,-1
 640 0 l 1,13,-1
 480 0 l 1,14,-1
 480 160 l 1,15,-1
 640 160 l 1,16,-1
 640 320 l 1,17,-1
 160 320 l 1,18,-1
 160 480 l 1,19,-1
 0 480 l 1,0,-1
EndSplineSet
EndChar

StartChar: colon
Encoding: 58 58 59
Width: 960
GlyphClass: 1
Flags: W
LayerCount: 2
Fore
SplineSet
320 160 m 5,0,-1
 640 160 l 5,1,-1
 640 0 l 5,2,-1
 320 0 l 5,3,-1
 320 160 l 5,0,-1
320 480 m 1,4,-1
 640 480 l 1,5,-1
 640 320 l 1,6,-1
 320 320 l 1,7,-1
 320 480 l 1,4,-1
EndSplineSet
EndChar

StartChar: semicolon
Encoding: 59 59 60
Width: 960
GlyphClass: 1
Flags: W
LayerCount: 2
Fore
SplineSet
320 160 m 1,0,-1
 640 160 l 1,1,-1
 640 -160 l 1,2,-1
 480 -160 l 1,3,-1
 480 0 l 1,4,-1
 320 0 l 1,5,-1
 320 160 l 1,0,-1
320 480 m 1,6,-1
 640 480 l 1,7,-1
 640 320 l 1,8,-1
 320 320 l 1,9,-1
 320 480 l 1,6,-1
EndSplineSet
EndChar

StartChar: less
Encoding: 60 60 61
Width: 960
GlyphClass: 1
Flags: W
LayerCount: 2
Fore
SplineSet
851 99 m 1,0,-1
 851 -54 l 1,1,-1
 143 -54 l 1,2,-1
 143 99 l 1,3,-1
 851 99 l 1,0,-1
EndSplineSet
EndChar

StartChar: equal
Encoding: 61 61 62
Width: 960
GlyphClass: 1
Flags: W
LayerCount: 2
Fore
SplineSet
160 160 m 5,0,-1
 640 160 l 5,1,-1
 640 0 l 5,2,-1
 160 0 l 5,3,-1
 160 160 l 5,0,-1
160 480 m 5,4,-1
 640 480 l 5,5,-1
 640 320 l 5,6,-1
 160 320 l 5,7,-1
 160 480 l 5,4,-1
EndSplineSet
EndChar

StartChar: greater
Encoding: 62 62 63
Width: 960
GlyphClass: 1
Flags: W
LayerCount: 2
Fore
SplineSet
851 99 m 1,0,-1
 851 -54 l 1,1,-1
 143 -54 l 1,2,-1
 143 99 l 1,3,-1
 851 99 l 1,0,-1
EndSplineSet
EndChar

StartChar: question
Encoding: 63 63 64
Width: 960
GlyphClass: 1
Flags: W
LayerCount: 2
Fore
SplineSet
0 480 m 1,0,-1
 0 640 l 1,1,-1
 160 640 l 1,2,-1
 160 800 l 1,3,-1
 480 800 l 1,4,-1
 480 640 l 1,5,-1
 640 640 l 1,6,-1
 640 480 l 1,7,-1
 480 480 l 1,8,-1
 480 320 l 1,9,-1
 320 320 l 1,10,-1
 320 640 l 1,11,-1
 160 640 l 1,12,-1
 160 480 l 1,13,-1
 0 480 l 1,0,-1
320 160 m 1,14,-1
 480 160 l 1,15,-1
 480 0 l 1,16,-1
 320 0 l 1,17,-1
 320 160 l 1,14,-1
EndSplineSet
EndChar

StartChar: at
Encoding: 64 64 65
Width: 960
GlyphClass: 1
Flags: W
LayerCount: 2
Fore
SplineSet
851 99 m 1,0,-1
 851 -54 l 1,1,-1
 143 -54 l 1,2,-1
 143 99 l 1,3,-1
 851 99 l 1,0,-1
EndSplineSet
EndChar

StartChar: A
Encoding: 65 65 66
Width: 960
GlyphClass: 1
Flags: W
LayerCount: 2
Fore
SplineSet
0 0 m 1,0,-1
 0 640 l 1,1,-1
 320 640 l 1,2,-1
 320 480 l 1,3,-1
 160 480 l 1,4,-1
 160 320 l 1,5,-1
 640 320 l 1,6,-1
 640 480 l 1,7,-1
 480 480 l 1,8,-1
 480 640 l 1,9,-1
 320 640 l 1,10,-1
 320 800 l 1,11,-1
 480 800 l 1,12,-1
 480 640 l 1,13,-1
 640 640 l 1,14,-1
 640 480 l 1,15,-1
 800 480 l 1,16,-1
 800 0 l 1,17,-1
 640 0 l 1,18,-1
 640 160 l 1,19,-1
 160 160 l 1,20,-1
 160 0 l 1,21,-1
 0 0 l 1,0,-1
EndSplineSet
EndChar

StartChar: B
Encoding: 66 66 67
Width: 960
GlyphClass: 1
Flags: W
LayerCount: 2
Fore
SplineSet
0 160 m 1,0,-1
 0 800 l 1,1,-1
 480 800 l 1,2,-1
 480 640 l 1,3,-1
 160 640 l 1,4,-1
 160 480 l 1,5,-1
 480 480 l 1,6,-1
 480 640 l 1,7,-1
 640 640 l 1,8,-1
 640 320 l 1,9,-1
 160 320 l 1,10,-1
 160 160 l 1,11,-1
 640 160 l 1,12,-1
 640 320 l 1,13,-1
 800 320 l 1,14,-1
 800 160 l 1,15,-1
 640 160 l 1,16,-1
 640 0 l 1,17,-1
 160 0 l 1,18,-1
 160 160 l 1,19,-1
 0 160 l 1,0,-1
EndSplineSet
EndChar

StartChar: C
Encoding: 67 67 68
Width: 960
GlyphClass: 1
Flags: W
LayerCount: 2
Fore
SplineSet
0 160 m 1,0,-1
 0 800 l 1,1,-1
 480 800 l 1,2,-1
 480 480 l 1,3,-1
 320 480 l 1,4,-1
 320 640 l 1,5,-1
 160 640 l 1,6,-1
 160 160 l 1,7,-1
 640 160 l 1,8,-1
 640 320 l 1,9,-1
 800 320 l 1,10,-1
 800 160 l 1,11,-1
 640 160 l 1,12,-1
 640 0 l 1,13,-1
 160 0 l 1,14,-1
 160 160 l 1,15,-1
 0 160 l 1,0,-1
EndSplineSet
EndChar

StartChar: D
Encoding: 68 68 69
Width: 960
GlyphClass: 1
Flags: W
LayerCount: 2
Fore
SplineSet
0 0 m 1,0,-1
 0 800 l 1,1,-1
 480 800 l 1,2,-1
 480 640 l 1,3,-1
 160 640 l 1,4,-1
 160 160 l 1,5,-1
 480 160 l 1,6,-1
 480 320 l 1,7,-1
 640 320 l 1,8,-1
 640 480 l 1,9,-1
 480 480 l 1,10,-1
 480 640 l 1,11,-1
 640 640 l 1,12,-1
 640 480 l 1,13,-1
 800 480 l 1,14,-1
 800 160 l 1,15,-1
 640 160 l 1,16,-1
 640 0 l 1,17,-1
 0 0 l 1,0,-1
EndSplineSet
EndChar

StartChar: E
Encoding: 69 69 70
Width: 960
GlyphClass: 1
Flags: W
LayerCount: 2
Fore
SplineSet
0 160 m 1,0,-1
 0 800 l 1,1,-1
 640 800 l 1,2,-1
 640 640 l 1,3,-1
 160 640 l 1,4,-1
 160 160 l 1,5,-1
 640 160 l 1,6,-1
 640 320 l 1,7,-1
 800 320 l 1,8,-1
 800 0 l 1,9,-1
 160 0 l 1,10,-1
 160 160 l 1,11,-1
 0 160 l 1,0,-1
320 320 m 1,12,-1
 320 480 l 1,13,-1
 480 480 l 1,14,-1
 480 320 l 1,15,-1
 320 320 l 1,12,-1
EndSplineSet
EndChar

StartChar: F
Encoding: 70 70 71
Width: 960
GlyphClass: 1
Flags: W
LayerCount: 2
Fore
SplineSet
0 0 m 1,0,-1
 0 800 l 1,1,-1
 640 800 l 1,2,-1
 640 640 l 1,3,-1
 160 640 l 1,4,-1
 160 320 l 1,5,-1
 320 320 l 1,6,-1
 320 480 l 1,7,-1
 800 480 l 1,8,-1
 800 320 l 1,9,-1
 320 320 l 1,10,-1
 320 160 l 1,11,-1
 160 160 l 1,12,-1
 160 0 l 1,13,-1
 0 0 l 1,0,-1
EndSplineSet
EndChar

StartChar: G
Encoding: 71 71 72
Width: 960
GlyphClass: 1
Flags: W
LayerCount: 2
Fore
SplineSet
0 160 m 1,0,-1
 0 800 l 1,1,-1
 480 800 l 1,2,-1
 480 640 l 1,3,-1
 160 640 l 1,4,-1
 160 160 l 1,5,-1
 480 160 l 1,6,-1
 480 320 l 1,7,-1
 320 320 l 1,8,-1
 320 480 l 1,9,-1
 800 480 l 1,10,-1
 800 320 l 1,11,-1
 640 320 l 1,12,-1
 640 0 l 1,13,-1
 160 0 l 1,14,-1
 160 160 l 1,15,-1
 0 160 l 1,0,-1
EndSplineSet
EndChar

StartChar: H
Encoding: 72 72 73
Width: 960
GlyphClass: 1
Flags: W
LayerCount: 2
Fore
SplineSet
0 160 m 1,0,-1
 0 800 l 1,1,-1
 320 800 l 1,2,-1
 320 640 l 1,3,-1
 160 640 l 1,4,-1
 160 480 l 1,5,-1
 640 480 l 1,6,-1
 640 640 l 1,7,-1
 800 640 l 1,8,-1
 800 0 l 1,9,-1
 640 0 l 1,10,-1
 640 320 l 1,11,-1
 160 320 l 1,12,-1
 160 160 l 1,13,-1
 0 160 l 1,0,-1
EndSplineSet
EndChar

StartChar: I
Encoding: 73 73 74
Width: 960
GlyphClass: 1
Flags: W
LayerCount: 2
Fore
SplineSet
0 480 m 1,0,-1
 0 800 l 1,1,-1
 640 800 l 1,2,-1
 640 640 l 1,3,-1
 480 640 l 1,4,-1
 480 160 l 1,5,-1
 800 160 l 1,6,-1
 800 0 l 1,7,-1
 160 0 l 1,8,-1
 160 160 l 1,9,-1
 320 160 l 1,10,-1
 320 640 l 1,11,-1
 160 640 l 1,12,-1
 160 480 l 1,13,-1
 0 480 l 1,0,-1
EndSplineSet
EndChar

StartChar: J
Encoding: 74 74 75
Width: 960
GlyphClass: 1
Flags: W
LayerCount: 2
Fore
SplineSet
0 160 m 1,0,-1
 0 320 l 1,1,-1
 320 320 l 1,2,-1
 320 160 l 1,3,-1
 480 160 l 1,4,-1
 480 640 l 1,5,-1
 160 640 l 1,6,-1
 160 480 l 1,7,-1
 0 480 l 1,8,-1
 0 800 l 1,9,-1
 800 800 l 1,10,-1
 800 640 l 1,11,-1
 640 640 l 1,12,-1
 640 0 l 1,13,-1
 320 0 l 1,14,-1
 320 160 l 1,15,-1
 0 160 l 1,0,-1
EndSplineSet
EndChar

StartChar: K
Encoding: 75 75 76
Width: 960
GlyphClass: 1
Flags: W
LayerCount: 2
Fore
SplineSet
0 0 m 1,0,-1
 0 800 l 1,1,-1
 320 800 l 1,2,-1
 320 640 l 1,3,-1
 160 640 l 1,4,-1
 160 480 l 1,5,-1
 480 480 l 1,6,-1
 480 640 l 1,7,-1
 640 640 l 1,8,-1
 640 800 l 1,9,-1
 800 800 l 1,10,-1
 800 640 l 1,11,-1
 640 640 l 1,12,-1
 640 480 l 1,13,-1
 480 480 l 1,14,-1
 480 320 l 1,15,-1
 640 320 l 1,16,-1
 640 0 l 1,17,-1
 480 0 l 1,18,-1
 480 320 l 1,19,-1
 160 320 l 1,20,-1
 160 0 l 1,21,-1
 0 0 l 1,0,-1
EndSplineSet
EndChar

StartChar: L
Encoding: 76 76 77
Width: 960
GlyphClass: 1
Flags: W
LayerCount: 2
Fore
SplineSet
0 160 m 1,0,-1
 0 800 l 1,1,-1
 160 800 l 1,2,-1
 160 320 l 1,3,-1
 320 320 l 1,4,-1
 320 160 l 1,5,-1
 480 160 l 1,6,-1
 480 320 l 1,7,-1
 640 320 l 1,8,-1
 640 160 l 1,9,-1
 800 160 l 1,10,-1
 800 0 l 1,11,-1
 640 0 l 1,12,-1
 640 160 l 1,13,-1
 480 160 l 1,14,-1
 480 0 l 1,15,-1
 160 0 l 1,16,-1
 160 160 l 1,17,-1
 0 160 l 1,0,-1
EndSplineSet
EndChar

StartChar: M
Encoding: 77 77 78
Width: 960
GlyphClass: 1
Flags: W
LayerCount: 2
Fore
SplineSet
0 160 m 1,0,-1
 0 800 l 1,1,-1
 480 800 l 1,2,-1
 480 640 l 1,3,-1
 800 640 l 1,4,-1
 800 0 l 1,5,-1
 640 0 l 1,6,-1
 640 480 l 1,7,-1
 480 480 l 1,8,-1
 480 160 l 1,9,-1
 320 160 l 1,10,-1
 320 640 l 1,11,-1
 160 640 l 1,12,-1
 160 160 l 1,13,-1
 0 160 l 1,0,-1
EndSplineSet
EndChar

StartChar: N
Encoding: 78 78 79
Width: 960
GlyphClass: 1
Flags: W
LayerCount: 2
Fore
SplineSet
0 160 m 1,0,-1
 0 800 l 1,1,-1
 480 800 l 1,2,-1
 480 320 l 1,3,-1
 640 320 l 1,4,-1
 640 800 l 1,5,-1
 800 800 l 1,6,-1
 800 0 l 1,7,-1
 640 0 l 1,8,-1
 640 160 l 1,9,-1
 480 160 l 1,10,-1
 480 320 l 1,11,-1
 320 320 l 1,12,-1
 320 640 l 1,13,-1
 160 640 l 1,14,-1
 160 160 l 1,15,-1
 0 160 l 1,0,-1
EndSplineSet
EndChar

StartChar: O
Encoding: 79 79 80
Width: 960
GlyphClass: 1
Flags: W
LayerCount: 2
Fore
SplineSet
0 320 m 1,0,-1
 0 800 l 1,1,-1
 640 800 l 1,2,-1
 640 640 l 1,3,-1
 160 640 l 1,4,-1
 160 320 l 1,5,-1
 320 320 l 1,6,-1
 320 160 l 1,7,-1
 640 160 l 1,8,-1
 640 640 l 1,9,-1
 800 640 l 1,10,-1
 800 160 l 1,11,-1
 640 160 l 1,12,-1
 640 0 l 1,13,-1
 320 0 l 1,14,-1
 320 160 l 1,15,-1
 160 160 l 1,16,-1
 160 320 l 1,17,-1
 0 320 l 1,0,-1
EndSplineSet
EndChar

StartChar: P
Encoding: 80 80 81
Width: 960
GlyphClass: 1
Flags: W
LayerCount: 2
Fore
SplineSet
0 0 m 1,0,-1
 0 800 l 1,1,-1
 640 800 l 1,2,-1
 640 640 l 1,3,-1
 160 640 l 1,4,-1
 160 480 l 1,5,-1
 640 480 l 1,6,-1
 640 640 l 1,7,-1
 800 640 l 1,8,-1
 800 320 l 1,9,-1
 160 320 l 1,10,-1
 160 0 l 1,11,-1
 0 0 l 1,0,-1
EndSplineSet
EndChar

StartChar: Q
Encoding: 81 81 82
Width: 960
GlyphClass: 1
Flags: W
LayerCount: 2
Fore
SplineSet
0 160 m 1,0,-1
 0 800 l 1,1,-1
 640 800 l 1,2,-1
 640 640 l 1,3,-1
 160 640 l 1,4,-1
 160 160 l 1,5,-1
 480 160 l 1,6,-1
 480 320 l 1,7,-1
 320 320 l 1,8,-1
 320 480 l 1,9,-1
 480 480 l 1,10,-1
 480 320 l 1,11,-1
 640 320 l 1,12,-1
 640 640 l 1,13,-1
 800 640 l 1,14,-1
 800 320 l 1,15,-1
 640 320 l 1,16,-1
 640 160 l 1,17,-1
 800 160 l 1,18,-1
 800 0 l 1,19,-1
 640 0 l 1,20,-1
 640 160 l 1,21,-1
 480 160 l 1,22,-1
 480 0 l 1,23,-1
 160 0 l 1,24,-1
 160 160 l 1,25,-1
 0 160 l 1,0,-1
EndSplineSet
EndChar

StartChar: R
Encoding: 82 82 83
Width: 960
GlyphClass: 1
Flags: W
LayerCount: 2
Fore
SplineSet
0 0 m 1,0,-1
 0 800 l 1,1,-1
 640 800 l 1,2,-1
 640 640 l 1,3,-1
 160 640 l 1,4,-1
 160 480 l 1,5,-1
 640 480 l 1,6,-1
 640 640 l 1,7,-1
 800 640 l 1,8,-1
 800 320 l 1,9,-1
 480 320 l 1,10,-1
 480 160 l 1,11,-1
 800 160 l 1,12,-1
 800 0 l 1,13,-1
 480 0 l 1,14,-1
 480 160 l 1,15,-1
 320 160 l 1,16,-1
 320 320 l 1,17,-1
 160 320 l 1,18,-1
 160 0 l 1,19,-1
 0 0 l 1,0,-1
EndSplineSet
EndChar

StartChar: S
Encoding: 83 83 84
Width: 960
GlyphClass: 1
Flags: W
LayerCount: 2
Fore
SplineSet
0 0 m 1,0,-1
 0 160 l 1,1,-1
 640 160 l 1,2,-1
 640 320 l 1,3,-1
 160 320 l 1,4,-1
 160 480 l 1,5,-1
 0 480 l 1,6,-1
 0 640 l 1,7,-1
 160 640 l 1,8,-1
 160 800 l 1,9,-1
 480 800 l 1,10,-1
 480 640 l 1,11,-1
 160 640 l 1,12,-1
 160 480 l 1,13,-1
 800 480 l 1,14,-1
 800 160 l 1,15,-1
 640 160 l 1,16,-1
 640 0 l 1,17,-1
 0 0 l 1,0,-1
EndSplineSet
EndChar

StartChar: T
Encoding: 84 84 85
Width: 960
GlyphClass: 1
Flags: W
LayerCount: 2
Fore
SplineSet
0 480 m 1,0,-1
 0 800 l 1,1,-1
 800 800 l 1,2,-1
 800 640 l 1,3,-1
 480 640 l 1,4,-1
 480 0 l 1,5,-1
 320 0 l 1,6,-1
 320 640 l 1,7,-1
 160 640 l 1,8,-1
 160 480 l 1,9,-1
 0 480 l 1,0,-1
EndSplineSet
EndChar

StartChar: U
Encoding: 85 85 86
Width: 960
GlyphClass: 1
Flags: W
LayerCount: 2
Fore
SplineSet
0 160 m 1,0,-1
 0 800 l 1,1,-1
 320 800 l 1,2,-1
 320 640 l 1,3,-1
 160 640 l 1,4,-1
 160 160 l 1,5,-1
 480 160 l 1,6,-1
 480 320 l 1,7,-1
 640 320 l 1,8,-1
 640 640 l 1,9,-1
 800 640 l 1,10,-1
 800 320 l 1,11,-1
 640 320 l 1,12,-1
 640 160 l 1,13,-1
 480 160 l 1,14,-1
 480 0 l 1,15,-1
 160 0 l 1,16,-1
 160 160 l 1,17,-1
 0 160 l 1,0,-1
EndSplineSet
EndChar

StartChar: V
Encoding: 86 86 87
Width: 960
GlyphClass: 1
Flags: W
LayerCount: 2
Fore
SplineSet
0 480 m 1,0,-1
 0 800 l 1,1,-1
 320 800 l 1,2,-1
 320 640 l 1,3,-1
 160 640 l 1,4,-1
 160 480 l 1,5,-1
 320 480 l 1,6,-1
 320 160 l 1,7,-1
 480 160 l 1,8,-1
 480 480 l 1,9,-1
 640 480 l 1,10,-1
 640 640 l 1,11,-1
 800 640 l 1,12,-1
 800 480 l 1,13,-1
 640 480 l 1,14,-1
 640 160 l 1,15,-1
 480 160 l 1,16,-1
 480 0 l 1,17,-1
 320 0 l 1,18,-1
 320 160 l 1,19,-1
 160 160 l 1,20,-1
 160 480 l 1,21,-1
 0 480 l 1,0,-1
EndSplineSet
EndChar

StartChar: W
Encoding: 87 87 88
Width: 960
GlyphClass: 1
Flags: W
LayerCount: 2
Fore
SplineSet
0 160 m 1,0,-1
 0 800 l 1,1,-1
 160 800 l 1,2,-1
 160 320 l 1,3,-1
 320 320 l 1,4,-1
 320 800 l 1,5,-1
 480 800 l 1,6,-1
 480 320 l 1,7,-1
 640 320 l 1,8,-1
 640 800 l 1,9,-1
 800 800 l 1,10,-1
 800 320 l 1,11,-1
 640 320 l 1,12,-1
 640 0 l 1,13,-1
 480 0 l 1,14,-1
 480 320 l 1,15,-1
 320 320 l 1,16,-1
 320 160 l 1,17,-1
 0 160 l 1,0,-1
EndSplineSet
EndChar

StartChar: X
Encoding: 88 88 89
Width: 960
GlyphClass: 1
Flags: W
LayerCount: 2
Fore
SplineSet
0 0 m 1,0,-1
 0 320 l 1,1,-1
 320 320 l 1,2,-1
 320 480 l 1,3,-1
 0 480 l 1,4,-1
 0 800 l 1,5,-1
 160 800 l 1,6,-1
 160 640 l 1,7,-1
 320 640 l 1,8,-1
 320 480 l 1,9,-1
 480 480 l 1,10,-1
 480 640 l 1,11,-1
 640 640 l 1,12,-1
 640 800 l 1,13,-1
 800 800 l 1,14,-1
 800 480 l 1,15,-1
 480 480 l 1,16,-1
 480 320 l 1,17,-1
 800 320 l 1,18,-1
 800 0 l 1,19,-1
 640 0 l 1,20,-1
 640 160 l 1,21,-1
 480 160 l 1,22,-1
 480 320 l 1,23,-1
 320 320 l 1,24,-1
 320 160 l 1,25,-1
 160 160 l 1,26,-1
 160 0 l 1,27,-1
 0 0 l 1,0,-1
EndSplineSet
EndChar

StartChar: Y
Encoding: 89 89 90
Width: 960
GlyphClass: 1
Flags: W
LayerCount: 2
Fore
SplineSet
0 0 m 1,0,-1
 0 160 l 1,1,-1
 640 160 l 1,2,-1
 640 480 l 1,3,-1
 480 480 l 1,4,-1
 480 320 l 1,5,-1
 320 320 l 1,6,-1
 320 480 l 1,7,-1
 0 480 l 1,8,-1
 0 800 l 1,9,-1
 160 800 l 1,10,-1
 160 640 l 1,11,-1
 320 640 l 1,12,-1
 320 480 l 1,13,-1
 480 480 l 1,14,-1
 480 640 l 1,15,-1
 640 640 l 1,16,-1
 640 800 l 1,17,-1
 800 800 l 1,18,-1
 800 160 l 1,19,-1
 640 160 l 1,20,-1
 640 0 l 1,21,-1
 0 0 l 1,0,-1
EndSplineSet
EndChar

StartChar: Z
Encoding: 90 90 91
Width: 960
GlyphClass: 1
Flags: W
LayerCount: 2
Fore
SplineSet
0 0 m 1,0,-1
 0 320 l 1,1,-1
 320 320 l 1,2,-1
 320 480 l 1,3,-1
 480 480 l 1,4,-1
 480 640 l 1,5,-1
 160 640 l 1,6,-1
 160 800 l 1,7,-1
 800 800 l 1,8,-1
 800 640 l 1,9,-1
 640 640 l 1,10,-1
 640 480 l 1,11,-1
 480 480 l 1,12,-1
 480 320 l 1,13,-1
 320 320 l 1,14,-1
 320 160 l 1,15,-1
 800 160 l 1,16,-1
 800 0 l 1,17,-1
 0 0 l 1,0,-1
EndSplineSet
EndChar

StartChar: bracketleft
Encoding: 91 91 92
Width: 960
GlyphClass: 1
Flags: W
LayerCount: 2
Fore
SplineSet
320 -160 m 5,0,-1
 320 800 l 5,1,-1
 640 800 l 5,2,-1
 640 640 l 5,3,-1
 480 640 l 5,4,-1
 480 0 l 5,5,-1
 640 0 l 5,6,-1
 640 -160 l 5,7,-1
 320 -160 l 5,0,-1
EndSplineSet
EndChar

StartChar: backslash
Encoding: 92 92 93
Width: 960
GlyphClass: 1
Flags: W
LayerCount: 2
Fore
SplineSet
851 99 m 1,0,-1
 851 -54 l 1,1,-1
 143 -54 l 1,2,-1
 143 99 l 1,3,-1
 851 99 l 1,0,-1
EndSplineSet
EndChar

StartChar: bracketright
Encoding: 93 93 94
Width: 960
GlyphClass: 1
Flags: W
LayerCount: 2
Fore
SplineSet
640 800 m 5,0,-1
 640 -160 l 5,1,-1
 320 -160 l 5,2,-1
 320 0 l 5,3,-1
 480 0 l 5,4,-1
 480 640 l 5,5,-1
 320 640 l 5,6,-1
 320 800 l 5,7,-1
 640 800 l 5,0,-1
EndSplineSet
EndChar

StartChar: asciicircum
Encoding: 94 94 95
Width: 960
GlyphClass: 1
Flags: W
LayerCount: 2
Fore
SplineSet
431 663 m 1,0,-1
 707 663 l 1,1,-1
 707 381 l 1,2,-1
 431 381 l 1,3,-1
 431 663 l 1,0,-1
EndSplineSet
EndChar

StartChar: underscore
Encoding: 95 95 96
Width: 960
GlyphClass: 1
Flags: W
LayerCount: 2
Fore
SplineSet
851 99 m 1,0,-1
 851 -54 l 1,1,-1
 143 -54 l 1,2,-1
 143 99 l 1,3,-1
 851 99 l 1,0,-1
EndSplineSet
EndChar

StartChar: grave
Encoding: 96 96 97
Width: 960
GlyphClass: 1
Flags: W
LayerCount: 2
Fore
SplineSet
320 480 m 5,0,-1
 320 800 l 5,1,-1
 640 800 l 5,2,-1
 640 640 l 5,3,-1
 480 640 l 5,4,-1
 480 480 l 5,5,-1
 320 480 l 5,0,-1
EndSplineSet
EndChar

StartChar: a
Encoding: 97 97 98
Width: 960
GlyphClass: 1
Flags: W
LayerCount: 2
Fore
SplineSet
0 0 m 1,0,-1
 0 640 l 1,1,-1
 320 640 l 1,2,-1
 320 480 l 1,3,-1
 160 480 l 1,4,-1
 160 320 l 1,5,-1
 640 320 l 1,6,-1
 640 480 l 1,7,-1
 480 480 l 1,8,-1
 480 640 l 1,9,-1
 320 640 l 1,10,-1
 320 800 l 1,11,-1
 480 800 l 1,12,-1
 480 640 l 1,13,-1
 640 640 l 1,14,-1
 640 480 l 1,15,-1
 800 480 l 1,16,-1
 800 0 l 1,17,-1
 640 0 l 1,18,-1
 640 160 l 1,19,-1
 160 160 l 1,20,-1
 160 0 l 1,21,-1
 0 0 l 1,0,-1
EndSplineSet
EndChar

StartChar: b
Encoding: 98 98 99
Width: 960
GlyphClass: 1
Flags: W
LayerCount: 2
Fore
SplineSet
0 160 m 1,0,-1
 0 800 l 1,1,-1
 480 800 l 1,2,-1
 480 640 l 1,3,-1
 160 640 l 1,4,-1
 160 480 l 1,5,-1
 480 480 l 1,6,-1
 480 640 l 1,7,-1
 640 640 l 1,8,-1
 640 320 l 1,9,-1
 160 320 l 1,10,-1
 160 160 l 1,11,-1
 640 160 l 1,12,-1
 640 320 l 1,13,-1
 800 320 l 1,14,-1
 800 160 l 1,15,-1
 640 160 l 1,16,-1
 640 0 l 1,17,-1
 160 0 l 1,18,-1
 160 160 l 1,19,-1
 0 160 l 1,0,-1
EndSplineSet
EndChar

StartChar: c
Encoding: 99 99 100
Width: 960
GlyphClass: 1
Flags: W
LayerCount: 2
Fore
SplineSet
0 160 m 1,0,-1
 0 800 l 1,1,-1
 480 800 l 1,2,-1
 480 480 l 1,3,-1
 320 480 l 1,4,-1
 320 640 l 1,5,-1
 160 640 l 1,6,-1
 160 160 l 1,7,-1
 640 160 l 1,8,-1
 640 320 l 1,9,-1
 800 320 l 1,10,-1
 800 160 l 1,11,-1
 640 160 l 1,12,-1
 640 0 l 1,13,-1
 160 0 l 1,14,-1
 160 160 l 1,15,-1
 0 160 l 1,0,-1
EndSplineSet
EndChar

StartChar: d
Encoding: 100 100 101
Width: 960
GlyphClass: 1
Flags: W
LayerCount: 2
Fore
SplineSet
0 0 m 1,0,-1
 0 800 l 1,1,-1
 480 800 l 1,2,-1
 480 640 l 1,3,-1
 160 640 l 1,4,-1
 160 160 l 1,5,-1
 480 160 l 1,6,-1
 480 320 l 1,7,-1
 640 320 l 1,8,-1
 640 480 l 1,9,-1
 480 480 l 1,10,-1
 480 640 l 1,11,-1
 640 640 l 1,12,-1
 640 480 l 1,13,-1
 800 480 l 1,14,-1
 800 160 l 1,15,-1
 640 160 l 1,16,-1
 640 0 l 1,17,-1
 0 0 l 1,0,-1
EndSplineSet
EndChar

StartChar: e
Encoding: 101 101 102
Width: 960
GlyphClass: 1
Flags: W
LayerCount: 2
Fore
SplineSet
0 160 m 1,0,-1
 0 800 l 1,1,-1
 640 800 l 1,2,-1
 640 640 l 1,3,-1
 160 640 l 1,4,-1
 160 160 l 1,5,-1
 640 160 l 1,6,-1
 640 320 l 1,7,-1
 800 320 l 1,8,-1
 800 0 l 1,9,-1
 160 0 l 1,10,-1
 160 160 l 1,11,-1
 0 160 l 1,0,-1
320 320 m 1,12,-1
 320 480 l 1,13,-1
 480 480 l 1,14,-1
 480 320 l 1,15,-1
 320 320 l 1,12,-1
EndSplineSet
EndChar

StartChar: f
Encoding: 102 102 103
Width: 960
GlyphClass: 1
Flags: W
LayerCount: 2
Fore
SplineSet
0 0 m 1,0,-1
 0 800 l 1,1,-1
 640 800 l 1,2,-1
 640 640 l 1,3,-1
 160 640 l 1,4,-1
 160 320 l 1,5,-1
 320 320 l 1,6,-1
 320 480 l 1,7,-1
 800 480 l 1,8,-1
 800 320 l 1,9,-1
 320 320 l 1,10,-1
 320 160 l 1,11,-1
 160 160 l 1,12,-1
 160 0 l 1,13,-1
 0 0 l 1,0,-1
EndSplineSet
EndChar

StartChar: g
Encoding: 103 103 104
Width: 960
GlyphClass: 1
Flags: W
LayerCount: 2
Fore
SplineSet
0 160 m 1,0,-1
 0 800 l 1,1,-1
 480 800 l 1,2,-1
 480 640 l 1,3,-1
 160 640 l 1,4,-1
 160 160 l 1,5,-1
 480 160 l 1,6,-1
 480 320 l 1,7,-1
 320 320 l 1,8,-1
 320 480 l 1,9,-1
 800 480 l 1,10,-1
 800 320 l 1,11,-1
 640 320 l 1,12,-1
 640 0 l 1,13,-1
 160 0 l 1,14,-1
 160 160 l 1,15,-1
 0 160 l 1,0,-1
EndSplineSet
EndChar

StartChar: h
Encoding: 104 104 105
Width: 960
GlyphClass: 1
Flags: W
LayerCount: 2
Fore
SplineSet
0 160 m 1,0,-1
 0 800 l 1,1,-1
 320 800 l 1,2,-1
 320 640 l 1,3,-1
 160 640 l 1,4,-1
 160 480 l 1,5,-1
 640 480 l 1,6,-1
 640 640 l 1,7,-1
 800 640 l 1,8,-1
 800 0 l 1,9,-1
 640 0 l 1,10,-1
 640 320 l 1,11,-1
 160 320 l 1,12,-1
 160 160 l 1,13,-1
 0 160 l 1,0,-1
EndSplineSet
EndChar

StartChar: i
Encoding: 105 105 106
Width: 960
GlyphClass: 1
Flags: W
LayerCount: 2
Fore
SplineSet
0 480 m 1,0,-1
 0 800 l 1,1,-1
 640 800 l 1,2,-1
 640 640 l 1,3,-1
 480 640 l 1,4,-1
 480 160 l 1,5,-1
 800 160 l 1,6,-1
 800 0 l 1,7,-1
 160 0 l 1,8,-1
 160 160 l 1,9,-1
 320 160 l 1,10,-1
 320 640 l 1,11,-1
 160 640 l 1,12,-1
 160 480 l 1,13,-1
 0 480 l 1,0,-1
EndSplineSet
EndChar

StartChar: j
Encoding: 106 106 107
Width: 960
GlyphClass: 1
Flags: W
LayerCount: 2
Fore
SplineSet
0 160 m 1,0,-1
 0 320 l 1,1,-1
 320 320 l 1,2,-1
 320 160 l 1,3,-1
 480 160 l 1,4,-1
 480 640 l 1,5,-1
 160 640 l 1,6,-1
 160 480 l 1,7,-1
 0 480 l 1,8,-1
 0 800 l 1,9,-1
 800 800 l 1,10,-1
 800 640 l 1,11,-1
 640 640 l 1,12,-1
 640 0 l 1,13,-1
 320 0 l 1,14,-1
 320 160 l 1,15,-1
 0 160 l 1,0,-1
EndSplineSet
EndChar

StartChar: k
Encoding: 107 107 108
Width: 960
GlyphClass: 1
Flags: W
LayerCount: 2
Fore
SplineSet
0 0 m 1,0,-1
 0 800 l 1,1,-1
 320 800 l 1,2,-1
 320 640 l 1,3,-1
 160 640 l 1,4,-1
 160 480 l 1,5,-1
 480 480 l 1,6,-1
 480 640 l 1,7,-1
 640 640 l 1,8,-1
 640 800 l 1,9,-1
 800 800 l 1,10,-1
 800 640 l 1,11,-1
 640 640 l 1,12,-1
 640 480 l 1,13,-1
 480 480 l 1,14,-1
 480 320 l 1,15,-1
 640 320 l 1,16,-1
 640 0 l 1,17,-1
 480 0 l 1,18,-1
 480 320 l 1,19,-1
 160 320 l 1,20,-1
 160 0 l 1,21,-1
 0 0 l 1,0,-1
EndSplineSet
EndChar

StartChar: l
Encoding: 108 108 109
Width: 960
GlyphClass: 1
Flags: W
LayerCount: 2
Fore
SplineSet
0 160 m 1,0,-1
 0 800 l 1,1,-1
 160 800 l 1,2,-1
 160 320 l 1,3,-1
 320 320 l 1,4,-1
 320 160 l 1,5,-1
 480 160 l 1,6,-1
 480 320 l 1,7,-1
 640 320 l 1,8,-1
 640 160 l 1,9,-1
 800 160 l 1,10,-1
 800 0 l 1,11,-1
 640 0 l 1,12,-1
 640 160 l 1,13,-1
 480 160 l 1,14,-1
 480 0 l 1,15,-1
 160 0 l 1,16,-1
 160 160 l 1,17,-1
 0 160 l 1,0,-1
EndSplineSet
EndChar

StartChar: m
Encoding: 109 109 110
Width: 960
GlyphClass: 1
Flags: W
LayerCount: 2
Fore
SplineSet
0 160 m 1,0,-1
 0 800 l 1,1,-1
 480 800 l 1,2,-1
 480 640 l 1,3,-1
 800 640 l 1,4,-1
 800 0 l 1,5,-1
 640 0 l 1,6,-1
 640 480 l 1,7,-1
 480 480 l 1,8,-1
 480 160 l 1,9,-1
 320 160 l 1,10,-1
 320 640 l 1,11,-1
 160 640 l 1,12,-1
 160 160 l 1,13,-1
 0 160 l 1,0,-1
EndSplineSet
EndChar

StartChar: n
Encoding: 110 110 111
Width: 960
GlyphClass: 1
Flags: W
LayerCount: 2
Fore
SplineSet
0 160 m 1,0,-1
 0 800 l 1,1,-1
 480 800 l 1,2,-1
 480 320 l 1,3,-1
 640 320 l 1,4,-1
 640 800 l 1,5,-1
 800 800 l 1,6,-1
 800 0 l 1,7,-1
 640 0 l 1,8,-1
 640 160 l 1,9,-1
 480 160 l 1,10,-1
 480 320 l 1,11,-1
 320 320 l 1,12,-1
 320 640 l 1,13,-1
 160 640 l 1,14,-1
 160 160 l 1,15,-1
 0 160 l 1,0,-1
EndSplineSet
EndChar

StartChar: o
Encoding: 111 111 112
Width: 960
GlyphClass: 1
Flags: W
LayerCount: 2
Fore
SplineSet
0 320 m 1,0,-1
 0 800 l 1,1,-1
 640 800 l 1,2,-1
 640 640 l 1,3,-1
 160 640 l 1,4,-1
 160 320 l 1,5,-1
 320 320 l 1,6,-1
 320 160 l 1,7,-1
 640 160 l 1,8,-1
 640 640 l 1,9,-1
 800 640 l 1,10,-1
 800 160 l 1,11,-1
 640 160 l 1,12,-1
 640 0 l 1,13,-1
 320 0 l 1,14,-1
 320 160 l 1,15,-1
 160 160 l 1,16,-1
 160 320 l 1,17,-1
 0 320 l 1,0,-1
EndSplineSet
EndChar

StartChar: p
Encoding: 112 112 113
Width: 960
GlyphClass: 1
Flags: W
LayerCount: 2
Fore
SplineSet
0 0 m 1,0,-1
 0 800 l 1,1,-1
 640 800 l 1,2,-1
 640 640 l 1,3,-1
 160 640 l 1,4,-1
 160 480 l 1,5,-1
 640 480 l 1,6,-1
 640 640 l 1,7,-1
 800 640 l 1,8,-1
 800 320 l 1,9,-1
 160 320 l 1,10,-1
 160 0 l 1,11,-1
 0 0 l 1,0,-1
EndSplineSet
EndChar

StartChar: q
Encoding: 113 113 114
Width: 960
GlyphClass: 1
Flags: W
LayerCount: 2
Fore
SplineSet
0 160 m 1,0,-1
 0 800 l 1,1,-1
 640 800 l 1,2,-1
 640 640 l 1,3,-1
 160 640 l 1,4,-1
 160 160 l 1,5,-1
 480 160 l 1,6,-1
 480 320 l 1,7,-1
 320 320 l 1,8,-1
 320 480 l 1,9,-1
 480 480 l 1,10,-1
 480 320 l 1,11,-1
 640 320 l 1,12,-1
 640 640 l 1,13,-1
 800 640 l 1,14,-1
 800 320 l 1,15,-1
 640 320 l 1,16,-1
 640 160 l 1,17,-1
 800 160 l 1,18,-1
 800 0 l 1,19,-1
 640 0 l 1,20,-1
 640 160 l 1,21,-1
 480 160 l 1,22,-1
 480 0 l 1,23,-1
 160 0 l 1,24,-1
 160 160 l 1,25,-1
 0 160 l 1,0,-1
EndSplineSet
EndChar

StartChar: r
Encoding: 114 114 115
Width: 960
GlyphClass: 1
Flags: W
LayerCount: 2
Fore
SplineSet
0 0 m 1,0,-1
 0 800 l 1,1,-1
 640 800 l 1,2,-1
 640 640 l 1,3,-1
 160 640 l 1,4,-1
 160 480 l 1,5,-1
 640 480 l 1,6,-1
 640 640 l 1,7,-1
 800 640 l 1,8,-1
 800 320 l 1,9,-1
 480 320 l 1,10,-1
 480 160 l 1,11,-1
 800 160 l 1,12,-1
 800 0 l 1,13,-1
 480 0 l 1,14,-1
 480 160 l 1,15,-1
 320 160 l 1,16,-1
 320 320 l 1,17,-1
 160 320 l 1,18,-1
 160 0 l 1,19,-1
 0 0 l 1,0,-1
EndSplineSet
EndChar

StartChar: s
Encoding: 115 115 116
Width: 960
GlyphClass: 1
Flags: W
LayerCount: 2
Fore
SplineSet
0 0 m 1,0,-1
 0 160 l 1,1,-1
 640 160 l 1,2,-1
 640 320 l 1,3,-1
 160 320 l 1,4,-1
 160 480 l 1,5,-1
 0 480 l 1,6,-1
 0 640 l 1,7,-1
 160 640 l 1,8,-1
 160 800 l 1,9,-1
 480 800 l 1,10,-1
 480 640 l 1,11,-1
 160 640 l 1,12,-1
 160 480 l 1,13,-1
 800 480 l 1,14,-1
 800 160 l 1,15,-1
 640 160 l 1,16,-1
 640 0 l 1,17,-1
 0 0 l 1,0,-1
EndSplineSet
EndChar

StartChar: t
Encoding: 116 116 117
Width: 960
GlyphClass: 1
Flags: W
LayerCount: 2
Fore
SplineSet
0 480 m 1,0,-1
 0 800 l 1,1,-1
 800 800 l 1,2,-1
 800 640 l 1,3,-1
 480 640 l 1,4,-1
 480 0 l 1,5,-1
 320 0 l 1,6,-1
 320 640 l 1,7,-1
 160 640 l 1,8,-1
 160 480 l 1,9,-1
 0 480 l 1,0,-1
EndSplineSet
EndChar

StartChar: u
Encoding: 117 117 118
Width: 960
GlyphClass: 1
Flags: W
LayerCount: 2
Fore
SplineSet
0 160 m 1,0,-1
 0 800 l 1,1,-1
 320 800 l 1,2,-1
 320 640 l 1,3,-1
 160 640 l 1,4,-1
 160 160 l 1,5,-1
 480 160 l 1,6,-1
 480 320 l 1,7,-1
 640 320 l 1,8,-1
 640 640 l 1,9,-1
 800 640 l 1,10,-1
 800 320 l 1,11,-1
 640 320 l 1,12,-1
 640 160 l 1,13,-1
 480 160 l 1,14,-1
 480 0 l 1,15,-1
 160 0 l 1,16,-1
 160 160 l 1,17,-1
 0 160 l 1,0,-1
EndSplineSet
EndChar

StartChar: v
Encoding: 118 118 119
Width: 960
GlyphClass: 1
Flags: W
LayerCount: 2
Fore
SplineSet
0 480 m 1,0,-1
 0 800 l 1,1,-1
 320 800 l 1,2,-1
 320 640 l 1,3,-1
 160 640 l 1,4,-1
 160 480 l 1,5,-1
 320 480 l 1,6,-1
 320 160 l 1,7,-1
 480 160 l 1,8,-1
 480 480 l 1,9,-1
 640 480 l 1,10,-1
 640 640 l 1,11,-1
 800 640 l 1,12,-1
 800 480 l 1,13,-1
 640 480 l 1,14,-1
 640 160 l 1,15,-1
 480 160 l 1,16,-1
 480 0 l 1,17,-1
 320 0 l 1,18,-1
 320 160 l 1,19,-1
 160 160 l 1,20,-1
 160 480 l 1,21,-1
 0 480 l 1,0,-1
EndSplineSet
EndChar

StartChar: w
Encoding: 119 119 120
Width: 960
GlyphClass: 1
Flags: W
LayerCount: 2
Fore
SplineSet
0 160 m 1,0,-1
 0 800 l 1,1,-1
 160 800 l 1,2,-1
 160 320 l 1,3,-1
 320 320 l 1,4,-1
 320 800 l 1,5,-1
 480 800 l 1,6,-1
 480 320 l 1,7,-1
 640 320 l 1,8,-1
 640 800 l 1,9,-1
 800 800 l 1,10,-1
 800 320 l 1,11,-1
 640 320 l 1,12,-1
 640 0 l 1,13,-1
 480 0 l 1,14,-1
 480 320 l 1,15,-1
 320 320 l 1,16,-1
 320 160 l 1,17,-1
 0 160 l 1,0,-1
EndSplineSet
EndChar

StartChar: x
Encoding: 120 120 121
Width: 960
GlyphClass: 1
Flags: W
LayerCount: 2
Fore
SplineSet
0 0 m 1,0,-1
 0 320 l 1,1,-1
 320 320 l 1,2,-1
 320 480 l 1,3,-1
 0 480 l 1,4,-1
 0 800 l 1,5,-1
 160 800 l 1,6,-1
 160 640 l 1,7,-1
 320 640 l 1,8,-1
 320 480 l 1,9,-1
 480 480 l 1,10,-1
 480 640 l 1,11,-1
 640 640 l 1,12,-1
 640 800 l 1,13,-1
 800 800 l 1,14,-1
 800 480 l 1,15,-1
 480 480 l 1,16,-1
 480 320 l 1,17,-1
 800 320 l 1,18,-1
 800 0 l 1,19,-1
 640 0 l 1,20,-1
 640 160 l 1,21,-1
 480 160 l 1,22,-1
 480 320 l 1,23,-1
 320 320 l 1,24,-1
 320 160 l 1,25,-1
 160 160 l 1,26,-1
 160 0 l 1,27,-1
 0 0 l 1,0,-1
EndSplineSet
EndChar

StartChar: y
Encoding: 121 121 122
Width: 960
GlyphClass: 1
Flags: W
LayerCount: 2
Fore
SplineSet
0 0 m 1,0,-1
 0 160 l 1,1,-1
 640 160 l 1,2,-1
 640 480 l 1,3,-1
 480 480 l 1,4,-1
 480 320 l 1,5,-1
 320 320 l 1,6,-1
 320 480 l 1,7,-1
 0 480 l 1,8,-1
 0 800 l 1,9,-1
 160 800 l 1,10,-1
 160 640 l 1,11,-1
 320 640 l 1,12,-1
 320 480 l 1,13,-1
 480 480 l 1,14,-1
 480 640 l 1,15,-1
 640 640 l 1,16,-1
 640 800 l 1,17,-1
 800 800 l 1,18,-1
 800 160 l 1,19,-1
 640 160 l 1,20,-1
 640 0 l 1,21,-1
 0 0 l 1,0,-1
EndSplineSet
EndChar

StartChar: z
Encoding: 122 122 123
Width: 960
GlyphClass: 1
Flags: W
LayerCount: 2
Fore
SplineSet
0 0 m 1,0,-1
 0 320 l 1,1,-1
 320 320 l 1,2,-1
 320 480 l 1,3,-1
 480 480 l 1,4,-1
 480 640 l 1,5,-1
 160 640 l 1,6,-1
 160 800 l 1,7,-1
 800 800 l 1,8,-1
 800 640 l 1,9,-1
 640 640 l 1,10,-1
 640 480 l 1,11,-1
 480 480 l 1,12,-1
 480 320 l 1,13,-1
 320 320 l 1,14,-1
 320 160 l 1,15,-1
 800 160 l 1,16,-1
 800 0 l 1,17,-1
 0 0 l 1,0,-1
EndSplineSet
EndChar

StartChar: braceleft
Encoding: 123 123 124
Width: 960
GlyphClass: 1
Flags: W
LayerCount: 2
Fore
SplineSet
320 0 m 1,0,-1
 320 320 l 1,1,-1
 160 320 l 1,2,-1
 160 480 l 1,3,-1
 320 480 l 1,4,-1
 320 800 l 1,5,-1
 640 800 l 1,6,-1
 640 640 l 1,7,-1
 480 640 l 1,8,-1
 480 480 l 1,9,-1
 320 480 l 1,10,-1
 320 320 l 1,11,-1
 480 320 l 1,12,-1
 480 160 l 1,13,-1
 640 160 l 1,14,-1
 640 0 l 1,15,-1
 320 0 l 1,0,-1
EndSplineSet
EndChar

StartChar: bar
Encoding: 124 124 125
Width: 960
GlyphClass: 1
Flags: W
LayerCount: 2
Fore
SplineSet
320 0 m 1,0,-1
 320 800 l 1,1,-1
 480 800 l 1,2,-1
 480 0 l 1,3,-1
 320 0 l 1,0,-1
EndSplineSet
EndChar

StartChar: braceright
Encoding: 125 125 126
Width: 960
GlyphClass: 1
Flags: W
LayerCount: 2
Fore
SplineSet
480 800 m 5,0,-1
 480 480 l 5,1,-1
 640 480 l 5,2,-1
 640 320 l 5,3,-1
 480 320 l 5,4,-1
 480 0 l 5,5,-1
 160 0 l 5,6,-1
 160 160 l 5,7,-1
 320 160 l 5,8,-1
 320 320 l 5,9,-1
 480 320 l 5,10,-1
 480 480 l 5,11,-1
 320 480 l 5,12,-1
 320 640 l 5,13,-1
 160 640 l 5,14,-1
 160 800 l 5,15,-1
 480 800 l 5,0,-1
EndSplineSet
EndChar

StartChar: asciitilde
Encoding: 126 126 127
Width: 960
GlyphClass: 1
Flags: W
LayerCount: 2
Fore
SplineSet
851 99 m 1,0,-1
 851 -54 l 1,1,-1
 143 -54 l 1,2,-1
 143 99 l 1,3,-1
 851 99 l 1,0,-1
EndSplineSet
EndChar

StartChar: uni007F
Encoding: 127 127 128
Width: 960
GlyphClass: 1
Flags: W
LayerCount: 2
Fore
SplineSet
851 99 m 1,0,-1
 851 -54 l 1,1,-1
 143 -54 l 1,2,-1
 143 99 l 1,3,-1
 851 99 l 1,0,-1
EndSplineSet
EndChar

StartChar: uni0080
Encoding: 128 128 129
Width: 960
GlyphClass: 1
Flags: W
LayerCount: 2
Fore
SplineSet
851 99 m 1,0,-1
 851 -54 l 1,1,-1
 143 -54 l 1,2,-1
 143 99 l 1,3,-1
 851 99 l 1,0,-1
EndSplineSet
EndChar

StartChar: uni0081
Encoding: 129 129 130
Width: 960
GlyphClass: 1
Flags: W
LayerCount: 2
Fore
SplineSet
851 99 m 1,0,-1
 851 -54 l 1,1,-1
 143 -54 l 1,2,-1
 143 99 l 1,3,-1
 851 99 l 1,0,-1
EndSplineSet
EndChar

StartChar: uni0082
Encoding: 130 130 131
Width: 960
GlyphClass: 1
Flags: W
LayerCount: 2
Fore
SplineSet
851 99 m 1,0,-1
 851 -54 l 1,1,-1
 143 -54 l 1,2,-1
 143 99 l 1,3,-1
 851 99 l 1,0,-1
EndSplineSet
EndChar

StartChar: uni0083
Encoding: 131 131 132
Width: 960
GlyphClass: 1
Flags: W
LayerCount: 2
Fore
SplineSet
851 99 m 1,0,-1
 851 -54 l 1,1,-1
 143 -54 l 1,2,-1
 143 99 l 1,3,-1
 851 99 l 1,0,-1
EndSplineSet
EndChar

StartChar: uni0084
Encoding: 132 132 133
Width: 960
GlyphClass: 1
Flags: W
LayerCount: 2
Fore
SplineSet
851 99 m 1,0,-1
 851 -54 l 1,1,-1
 143 -54 l 1,2,-1
 143 99 l 1,3,-1
 851 99 l 1,0,-1
EndSplineSet
EndChar

StartChar: uni0085
Encoding: 133 133 134
Width: 960
GlyphClass: 1
Flags: W
LayerCount: 2
Fore
SplineSet
851 99 m 1,0,-1
 851 -54 l 1,1,-1
 143 -54 l 1,2,-1
 143 99 l 1,3,-1
 851 99 l 1,0,-1
EndSplineSet
EndChar

StartChar: uni0086
Encoding: 134 134 135
Width: 960
GlyphClass: 1
Flags: W
LayerCount: 2
Fore
SplineSet
851 99 m 1,0,-1
 851 -54 l 1,1,-1
 143 -54 l 1,2,-1
 143 99 l 1,3,-1
 851 99 l 1,0,-1
EndSplineSet
EndChar

StartChar: uni0087
Encoding: 135 135 136
Width: 960
GlyphClass: 1
Flags: W
LayerCount: 2
Fore
SplineSet
851 99 m 1,0,-1
 851 -54 l 1,1,-1
 143 -54 l 1,2,-1
 143 99 l 1,3,-1
 851 99 l 1,0,-1
EndSplineSet
EndChar

StartChar: uni0088
Encoding: 136 136 137
Width: 960
GlyphClass: 1
Flags: W
LayerCount: 2
Fore
SplineSet
851 99 m 1,0,-1
 851 -54 l 1,1,-1
 143 -54 l 1,2,-1
 143 99 l 1,3,-1
 851 99 l 1,0,-1
EndSplineSet
EndChar

StartChar: uni0089
Encoding: 137 137 138
Width: 960
GlyphClass: 1
Flags: W
LayerCount: 2
Fore
SplineSet
851 99 m 1,0,-1
 851 -54 l 1,1,-1
 143 -54 l 1,2,-1
 143 99 l 1,3,-1
 851 99 l 1,0,-1
EndSplineSet
EndChar

StartChar: uni008A
Encoding: 138 138 139
Width: 960
GlyphClass: 1
Flags: W
LayerCount: 2
Fore
SplineSet
851 99 m 1,0,-1
 851 -54 l 1,1,-1
 143 -54 l 1,2,-1
 143 99 l 1,3,-1
 851 99 l 1,0,-1
EndSplineSet
EndChar

StartChar: uni008B
Encoding: 139 139 140
Width: 960
GlyphClass: 1
Flags: W
LayerCount: 2
Fore
SplineSet
851 99 m 1,0,-1
 851 -54 l 1,1,-1
 143 -54 l 1,2,-1
 143 99 l 1,3,-1
 851 99 l 1,0,-1
EndSplineSet
EndChar

StartChar: uni008C
Encoding: 140 140 141
Width: 960
GlyphClass: 1
Flags: W
LayerCount: 2
Fore
SplineSet
851 99 m 1,0,-1
 851 -54 l 1,1,-1
 143 -54 l 1,2,-1
 143 99 l 1,3,-1
 851 99 l 1,0,-1
EndSplineSet
EndChar

StartChar: uni008D
Encoding: 141 141 142
Width: 960
GlyphClass: 1
Flags: W
LayerCount: 2
Fore
SplineSet
851 99 m 1,0,-1
 851 -54 l 1,1,-1
 143 -54 l 1,2,-1
 143 99 l 1,3,-1
 851 99 l 1,0,-1
EndSplineSet
EndChar

StartChar: uni008E
Encoding: 142 142 143
Width: 960
GlyphClass: 1
Flags: W
LayerCount: 2
Fore
SplineSet
851 99 m 1,0,-1
 851 -54 l 1,1,-1
 143 -54 l 1,2,-1
 143 99 l 1,3,-1
 851 99 l 1,0,-1
EndSplineSet
EndChar

StartChar: uni008F
Encoding: 143 143 144
Width: 960
GlyphClass: 1
Flags: W
LayerCount: 2
Fore
SplineSet
851 99 m 1,0,-1
 851 -54 l 1,1,-1
 143 -54 l 1,2,-1
 143 99 l 1,3,-1
 851 99 l 1,0,-1
EndSplineSet
EndChar

StartChar: uni0090
Encoding: 144 144 145
Width: 960
GlyphClass: 1
Flags: W
LayerCount: 2
Fore
SplineSet
851 99 m 1,0,-1
 851 -54 l 1,1,-1
 143 -54 l 1,2,-1
 143 99 l 1,3,-1
 851 99 l 1,0,-1
EndSplineSet
EndChar

StartChar: uni0091
Encoding: 145 145 146
Width: 960
GlyphClass: 1
Flags: W
LayerCount: 2
Fore
SplineSet
851 99 m 1,0,-1
 851 -54 l 1,1,-1
 143 -54 l 1,2,-1
 143 99 l 1,3,-1
 851 99 l 1,0,-1
EndSplineSet
EndChar

StartChar: uni0092
Encoding: 146 146 147
Width: 960
GlyphClass: 1
Flags: W
LayerCount: 2
Fore
SplineSet
851 99 m 1,0,-1
 851 -54 l 1,1,-1
 143 -54 l 1,2,-1
 143 99 l 1,3,-1
 851 99 l 1,0,-1
EndSplineSet
EndChar

StartChar: uni0093
Encoding: 147 147 148
Width: 960
GlyphClass: 1
Flags: W
LayerCount: 2
Fore
SplineSet
851 99 m 1,0,-1
 851 -54 l 1,1,-1
 143 -54 l 1,2,-1
 143 99 l 1,3,-1
 851 99 l 1,0,-1
EndSplineSet
EndChar

StartChar: uni0094
Encoding: 148 148 149
Width: 960
GlyphClass: 1
Flags: W
LayerCount: 2
Fore
SplineSet
851 99 m 1,0,-1
 851 -54 l 1,1,-1
 143 -54 l 1,2,-1
 143 99 l 1,3,-1
 851 99 l 1,0,-1
EndSplineSet
EndChar

StartChar: uni0095
Encoding: 149 149 150
Width: 960
GlyphClass: 1
Flags: W
LayerCount: 2
Fore
SplineSet
851 99 m 1,0,-1
 851 -54 l 1,1,-1
 143 -54 l 1,2,-1
 143 99 l 1,3,-1
 851 99 l 1,0,-1
EndSplineSet
EndChar

StartChar: uni0096
Encoding: 150 150 151
Width: 960
GlyphClass: 1
Flags: W
LayerCount: 2
Fore
SplineSet
851 99 m 1,0,-1
 851 -54 l 1,1,-1
 143 -54 l 1,2,-1
 143 99 l 1,3,-1
 851 99 l 1,0,-1
EndSplineSet
EndChar

StartChar: uni0097
Encoding: 151 151 152
Width: 960
GlyphClass: 1
Flags: W
LayerCount: 2
Fore
SplineSet
851 99 m 1,0,-1
 851 -54 l 1,1,-1
 143 -54 l 1,2,-1
 143 99 l 1,3,-1
 851 99 l 1,0,-1
EndSplineSet
EndChar

StartChar: uni0098
Encoding: 152 152 153
Width: 960
GlyphClass: 1
Flags: W
LayerCount: 2
Fore
SplineSet
851 99 m 1,0,-1
 851 -54 l 1,1,-1
 143 -54 l 1,2,-1
 143 99 l 1,3,-1
 851 99 l 1,0,-1
EndSplineSet
EndChar

StartChar: uni0099
Encoding: 153 153 154
Width: 960
GlyphClass: 1
Flags: W
LayerCount: 2
Fore
SplineSet
851 99 m 1,0,-1
 851 -54 l 1,1,-1
 143 -54 l 1,2,-1
 143 99 l 1,3,-1
 851 99 l 1,0,-1
EndSplineSet
EndChar

StartChar: uni009A
Encoding: 154 154 155
Width: 960
GlyphClass: 1
Flags: W
LayerCount: 2
Fore
SplineSet
851 99 m 1,0,-1
 851 -54 l 1,1,-1
 143 -54 l 1,2,-1
 143 99 l 1,3,-1
 851 99 l 1,0,-1
EndSplineSet
EndChar

StartChar: uni009B
Encoding: 155 155 156
Width: 960
GlyphClass: 1
Flags: W
LayerCount: 2
Fore
SplineSet
851 99 m 1,0,-1
 851 -54 l 1,1,-1
 143 -54 l 1,2,-1
 143 99 l 1,3,-1
 851 99 l 1,0,-1
EndSplineSet
EndChar

StartChar: uni009C
Encoding: 156 156 157
Width: 960
GlyphClass: 1
Flags: W
LayerCount: 2
Fore
SplineSet
851 99 m 1,0,-1
 851 -54 l 1,1,-1
 143 -54 l 1,2,-1
 143 99 l 1,3,-1
 851 99 l 1,0,-1
EndSplineSet
EndChar

StartChar: uni009D
Encoding: 157 157 158
Width: 960
GlyphClass: 1
Flags: W
LayerCount: 2
Fore
SplineSet
851 99 m 1,0,-1
 851 -54 l 1,1,-1
 143 -54 l 1,2,-1
 143 99 l 1,3,-1
 851 99 l 1,0,-1
EndSplineSet
EndChar

StartChar: uni009E
Encoding: 158 158 159
Width: 960
GlyphClass: 1
Flags: W
LayerCount: 2
Fore
SplineSet
851 99 m 1,0,-1
 851 -54 l 1,1,-1
 143 -54 l 1,2,-1
 143 99 l 1,3,-1
 851 99 l 1,0,-1
EndSplineSet
EndChar

StartChar: uni009F
Encoding: 159 159 160
Width: 960
GlyphClass: 1
Flags: W
LayerCount: 2
Fore
SplineSet
851 99 m 1,0,-1
 851 -54 l 1,1,-1
 143 -54 l 1,2,-1
 143 99 l 1,3,-1
 851 99 l 1,0,-1
EndSplineSet
EndChar

StartChar: uni00A0
Encoding: 160 160 161
Width: 960
GlyphClass: 1
Flags: W
LayerCount: 2
Fore
SplineSet
851 99 m 1,0,-1
 851 -54 l 1,1,-1
 143 -54 l 1,2,-1
 143 99 l 1,3,-1
 851 99 l 1,0,-1
EndSplineSet
EndChar

StartChar: exclamdown
Encoding: 161 161 162
Width: 960
GlyphClass: 1
Flags: W
LayerCount: 2
Fore
SplineSet
640 320 m 5,0,-1
 640 0 l 5,1,-1
 320 0 l 5,2,-1
 320 160 l 5,3,-1
 160 160 l 5,4,-1
 160 320 l 5,5,-1
 320 320 l 5,6,-1
 320 480 l 5,7,-1
 480 480 l 5,8,-1
 480 320 l 5,9,-1
 640 320 l 5,0,-1
480 640 m 5,10,-1
 320 640 l 5,11,-1
 320 800 l 5,12,-1
 480 800 l 5,13,-1
 480 640 l 5,10,-1
EndSplineSet
EndChar

StartChar: cent
Encoding: 162 162 163
Width: 960
GlyphClass: 1
Flags: W
LayerCount: 2
Fore
SplineSet
851 99 m 1,0,-1
 851 -54 l 1,1,-1
 143 -54 l 1,2,-1
 143 99 l 1,3,-1
 851 99 l 1,0,-1
EndSplineSet
EndChar

StartChar: sterling
Encoding: 163 163 164
Width: 960
GlyphClass: 1
Flags: W
LayerCount: 2
Fore
SplineSet
851 99 m 1,0,-1
 851 -54 l 1,1,-1
 143 -54 l 1,2,-1
 143 99 l 1,3,-1
 851 99 l 1,0,-1
EndSplineSet
EndChar

StartChar: currency
Encoding: 164 164 165
Width: 960
GlyphClass: 1
Flags: W
LayerCount: 2
Fore
SplineSet
851 99 m 1,0,-1
 851 -54 l 1,1,-1
 143 -54 l 1,2,-1
 143 99 l 1,3,-1
 851 99 l 1,0,-1
EndSplineSet
EndChar

StartChar: yen
Encoding: 165 165 166
Width: 960
GlyphClass: 1
Flags: W
LayerCount: 2
Fore
SplineSet
851 99 m 1,0,-1
 851 -54 l 1,1,-1
 143 -54 l 1,2,-1
 143 99 l 1,3,-1
 851 99 l 1,0,-1
EndSplineSet
EndChar

StartChar: brokenbar
Encoding: 166 166 167
Width: 960
GlyphClass: 1
Flags: W
LayerCount: 2
Fore
SplineSet
320 0 m 1,0,-1
 320 320 l 1,1,-1
 480 320 l 1,2,-1
 480 0 l 1,3,-1
 320 0 l 1,0,-1
320 480 m 5,4,-1
 320 800 l 5,5,-1
 480 800 l 5,6,-1
 480 480 l 5,7,-1
 320 480 l 5,4,-1
EndSplineSet
EndChar

StartChar: section
Encoding: 167 167 168
Width: 960
GlyphClass: 1
Flags: W
LayerCount: 2
Fore
SplineSet
851 99 m 1,0,-1
 851 -54 l 1,1,-1
 143 -54 l 1,2,-1
 143 99 l 1,3,-1
 851 99 l 1,0,-1
EndSplineSet
EndChar

StartChar: dieresis
Encoding: 168 168 169
Width: 960
GlyphClass: 1
Flags: W
LayerCount: 2
Fore
SplineSet
851 99 m 1,0,-1
 851 -54 l 1,1,-1
 143 -54 l 1,2,-1
 143 99 l 1,3,-1
 851 99 l 1,0,-1
EndSplineSet
EndChar

StartChar: copyright
Encoding: 169 169 170
Width: 960
GlyphClass: 1
Flags: W
LayerCount: 2
Fore
SplineSet
851 99 m 1,0,-1
 851 -54 l 1,1,-1
 143 -54 l 1,2,-1
 143 99 l 1,3,-1
 851 99 l 1,0,-1
EndSplineSet
EndChar

StartChar: ordfeminine
Encoding: 170 170 171
Width: 960
GlyphClass: 1
Flags: W
LayerCount: 2
Fore
SplineSet
851 99 m 1,0,-1
 851 -54 l 1,1,-1
 143 -54 l 1,2,-1
 143 99 l 1,3,-1
 851 99 l 1,0,-1
EndSplineSet
EndChar

StartChar: guillemotleft
Encoding: 171 171 172
Width: 960
GlyphClass: 1
Flags: W
LayerCount: 2
Fore
SplineSet
851 99 m 1,0,-1
 851 -54 l 1,1,-1
 143 -54 l 1,2,-1
 143 99 l 1,3,-1
 851 99 l 1,0,-1
EndSplineSet
EndChar

StartChar: logicalnot
Encoding: 172 172 173
Width: 960
GlyphClass: 1
Flags: W
LayerCount: 2
Fore
SplineSet
851 99 m 1,0,-1
 851 -54 l 1,1,-1
 143 -54 l 1,2,-1
 143 99 l 1,3,-1
 851 99 l 1,0,-1
EndSplineSet
EndChar

StartChar: uni00AD
Encoding: 173 173 174
Width: 960
GlyphClass: 1
Flags: W
LayerCount: 2
Fore
SplineSet
851 99 m 1,0,-1
 851 -54 l 1,1,-1
 143 -54 l 1,2,-1
 143 99 l 1,3,-1
 851 99 l 1,0,-1
EndSplineSet
EndChar

StartChar: registered
Encoding: 174 174 175
Width: 960
GlyphClass: 1
Flags: W
LayerCount: 2
Fore
SplineSet
851 99 m 1,0,-1
 851 -54 l 1,1,-1
 143 -54 l 1,2,-1
 143 99 l 1,3,-1
 851 99 l 1,0,-1
EndSplineSet
EndChar

StartChar: macron
Encoding: 175 175 176
Width: 960
GlyphClass: 1
Flags: W
LayerCount: 2
Fore
SplineSet
851 99 m 1,0,-1
 851 -54 l 1,1,-1
 143 -54 l 1,2,-1
 143 99 l 1,3,-1
 851 99 l 1,0,-1
EndSplineSet
EndChar

StartChar: degree
Encoding: 176 176 177
Width: 960
GlyphClass: 1
Flags: W
LayerCount: 2
Fore
SplineSet
851 99 m 1,0,-1
 851 -54 l 1,1,-1
 143 -54 l 1,2,-1
 143 99 l 1,3,-1
 851 99 l 1,0,-1
EndSplineSet
EndChar

StartChar: plusminus
Encoding: 177 177 178
Width: 960
GlyphClass: 1
Flags: W
LayerCount: 2
Fore
SplineSet
851 99 m 1,0,-1
 851 -54 l 1,1,-1
 143 -54 l 1,2,-1
 143 99 l 1,3,-1
 851 99 l 1,0,-1
EndSplineSet
EndChar

StartChar: uni00B2
Encoding: 178 178 179
Width: 960
GlyphClass: 1
Flags: W
LayerCount: 2
Fore
SplineSet
851 99 m 1,0,-1
 851 -54 l 1,1,-1
 143 -54 l 1,2,-1
 143 99 l 1,3,-1
 851 99 l 1,0,-1
EndSplineSet
EndChar

StartChar: uni00B3
Encoding: 179 179 180
Width: 960
GlyphClass: 1
Flags: W
LayerCount: 2
Fore
SplineSet
851 99 m 1,0,-1
 851 -54 l 1,1,-1
 143 -54 l 1,2,-1
 143 99 l 1,3,-1
 851 99 l 1,0,-1
EndSplineSet
EndChar

StartChar: acute
Encoding: 180 180 181
Width: 960
GlyphClass: 1
Flags: W
LayerCount: 2
Fore
SplineSet
320 800 m 5,0,-1
 640 800 l 5,1,-1
 640 480 l 5,2,-1
 480 480 l 5,3,-1
 480 640 l 5,4,-1
 320 640 l 5,5,-1
 320 800 l 5,0,-1
EndSplineSet
EndChar

StartChar: mu
Encoding: 181 181 182
Width: 960
GlyphClass: 1
Flags: W
LayerCount: 2
Fore
SplineSet
851 99 m 1,0,-1
 851 -54 l 1,1,-1
 143 -54 l 1,2,-1
 143 99 l 1,3,-1
 851 99 l 1,0,-1
EndSplineSet
EndChar

StartChar: paragraph
Encoding: 182 182 183
Width: 960
GlyphClass: 1
Flags: W
LayerCount: 2
Fore
SplineSet
851 99 m 1,0,-1
 851 -54 l 1,1,-1
 143 -54 l 1,2,-1
 143 99 l 1,3,-1
 851 99 l 1,0,-1
EndSplineSet
EndChar

StartChar: periodcentered
Encoding: 183 183 184
Width: 960
GlyphClass: 1
Flags: W
LayerCount: 2
Fore
SplineSet
851 99 m 1,0,-1
 851 -54 l 1,1,-1
 143 -54 l 1,2,-1
 143 99 l 1,3,-1
 851 99 l 1,0,-1
EndSplineSet
EndChar

StartChar: cedilla
Encoding: 184 184 185
Width: 960
GlyphClass: 1
Flags: W
LayerCount: 2
Fore
SplineSet
851 99 m 1,0,-1
 851 -54 l 1,1,-1
 143 -54 l 1,2,-1
 143 99 l 1,3,-1
 851 99 l 1,0,-1
EndSplineSet
EndChar

StartChar: uni00B9
Encoding: 185 185 186
Width: 960
GlyphClass: 1
Flags: W
LayerCount: 2
Fore
SplineSet
851 99 m 1,0,-1
 851 -54 l 1,1,-1
 143 -54 l 1,2,-1
 143 99 l 1,3,-1
 851 99 l 1,0,-1
EndSplineSet
EndChar

StartChar: ordmasculine
Encoding: 186 186 187
Width: 960
GlyphClass: 1
Flags: W
LayerCount: 2
Fore
SplineSet
851 99 m 1,0,-1
 851 -54 l 1,1,-1
 143 -54 l 1,2,-1
 143 99 l 1,3,-1
 851 99 l 1,0,-1
EndSplineSet
EndChar

StartChar: guillemotright
Encoding: 187 187 188
Width: 960
GlyphClass: 1
Flags: W
LayerCount: 2
Fore
SplineSet
851 99 m 1,0,-1
 851 -54 l 1,1,-1
 143 -54 l 1,2,-1
 143 99 l 1,3,-1
 851 99 l 1,0,-1
EndSplineSet
EndChar

StartChar: onequarter
Encoding: 188 188 189
Width: 960
GlyphClass: 1
Flags: W
LayerCount: 2
Fore
SplineSet
851 99 m 1,0,-1
 851 -54 l 1,1,-1
 143 -54 l 1,2,-1
 143 99 l 1,3,-1
 851 99 l 1,0,-1
EndSplineSet
EndChar

StartChar: onehalf
Encoding: 189 189 190
Width: 960
GlyphClass: 1
Flags: W
LayerCount: 2
Fore
SplineSet
851 99 m 1,0,-1
 851 -54 l 1,1,-1
 143 -54 l 1,2,-1
 143 99 l 1,3,-1
 851 99 l 1,0,-1
EndSplineSet
EndChar

StartChar: threequarters
Encoding: 190 190 191
Width: 960
GlyphClass: 1
Flags: W
LayerCount: 2
Fore
SplineSet
851 99 m 1,0,-1
 851 -54 l 1,1,-1
 143 -54 l 1,2,-1
 143 99 l 1,3,-1
 851 99 l 1,0,-1
EndSplineSet
EndChar

StartChar: questiondown
Encoding: 191 191 192
Width: 960
GlyphClass: 1
Flags: W
LayerCount: 2
Fore
SplineSet
800 320 m 5,0,-1
 800 160 l 5,1,-1
 640 160 l 5,2,-1
 640 0 l 5,3,-1
 320 0 l 5,4,-1
 320 160 l 5,5,-1
 160 160 l 5,6,-1
 160 320 l 5,7,-1
 320 320 l 5,8,-1
 320 480 l 5,9,-1
 480 480 l 5,10,-1
 480 160 l 5,11,-1
 640 160 l 5,12,-1
 640 320 l 5,13,-1
 800 320 l 5,0,-1
480 640 m 5,14,-1
 320 640 l 5,15,-1
 320 800 l 5,16,-1
 480 800 l 5,17,-1
 480 640 l 5,14,-1
EndSplineSet
EndChar

StartChar: Agrave
Encoding: 192 192 193
Width: 960
GlyphClass: 1
Flags: W
LayerCount: 2
Fore
SplineSet
851 99 m 1,0,-1
 851 -54 l 1,1,-1
 143 -54 l 1,2,-1
 143 99 l 1,3,-1
 851 99 l 1,0,-1
EndSplineSet
EndChar

StartChar: Aacute
Encoding: 193 193 194
Width: 960
GlyphClass: 1
Flags: W
LayerCount: 2
Fore
SplineSet
851 99 m 1,0,-1
 851 -54 l 1,1,-1
 143 -54 l 1,2,-1
 143 99 l 1,3,-1
 851 99 l 1,0,-1
EndSplineSet
EndChar

StartChar: Acircumflex
Encoding: 194 194 195
Width: 960
GlyphClass: 1
Flags: W
LayerCount: 2
Fore
SplineSet
851 99 m 1,0,-1
 851 -54 l 1,1,-1
 143 -54 l 1,2,-1
 143 99 l 1,3,-1
 851 99 l 1,0,-1
EndSplineSet
EndChar

StartChar: Atilde
Encoding: 195 195 196
Width: 960
GlyphClass: 1
Flags: W
LayerCount: 2
Fore
SplineSet
851 99 m 1,0,-1
 851 -54 l 1,1,-1
 143 -54 l 1,2,-1
 143 99 l 1,3,-1
 851 99 l 1,0,-1
EndSplineSet
EndChar

StartChar: Adieresis
Encoding: 196 196 197
Width: 960
GlyphClass: 1
Flags: W
LayerCount: 2
Fore
SplineSet
851 99 m 1,0,-1
 851 -54 l 1,1,-1
 143 -54 l 1,2,-1
 143 99 l 1,3,-1
 851 99 l 1,0,-1
EndSplineSet
EndChar

StartChar: Aring
Encoding: 197 197 198
Width: 960
GlyphClass: 1
Flags: W
LayerCount: 2
Fore
SplineSet
851 99 m 1,0,-1
 851 -54 l 1,1,-1
 143 -54 l 1,2,-1
 143 99 l 1,3,-1
 851 99 l 1,0,-1
EndSplineSet
EndChar

StartChar: AE
Encoding: 198 198 199
Width: 960
GlyphClass: 1
Flags: W
LayerCount: 2
Fore
SplineSet
851 99 m 1,0,-1
 851 -54 l 1,1,-1
 143 -54 l 1,2,-1
 143 99 l 1,3,-1
 851 99 l 1,0,-1
EndSplineSet
EndChar

StartChar: Ccedilla
Encoding: 199 199 200
Width: 960
GlyphClass: 1
Flags: W
LayerCount: 2
Fore
SplineSet
851 99 m 1,0,-1
 851 -54 l 1,1,-1
 143 -54 l 1,2,-1
 143 99 l 1,3,-1
 851 99 l 1,0,-1
EndSplineSet
EndChar

StartChar: Egrave
Encoding: 200 200 201
Width: 960
GlyphClass: 1
Flags: W
LayerCount: 2
Fore
SplineSet
851 99 m 1,0,-1
 851 -54 l 1,1,-1
 143 -54 l 1,2,-1
 143 99 l 1,3,-1
 851 99 l 1,0,-1
EndSplineSet
EndChar

StartChar: Eacute
Encoding: 201 201 202
Width: 960
GlyphClass: 1
Flags: W
LayerCount: 2
Fore
SplineSet
851 99 m 1,0,-1
 851 -54 l 1,1,-1
 143 -54 l 1,2,-1
 143 99 l 1,3,-1
 851 99 l 1,0,-1
EndSplineSet
EndChar

StartChar: Ecircumflex
Encoding: 202 202 203
Width: 960
GlyphClass: 1
Flags: W
LayerCount: 2
Fore
SplineSet
851 99 m 1,0,-1
 851 -54 l 1,1,-1
 143 -54 l 1,2,-1
 143 99 l 1,3,-1
 851 99 l 1,0,-1
EndSplineSet
EndChar

StartChar: Edieresis
Encoding: 203 203 204
Width: 960
GlyphClass: 1
Flags: W
LayerCount: 2
Fore
SplineSet
851 99 m 1,0,-1
 851 -54 l 1,1,-1
 143 -54 l 1,2,-1
 143 99 l 1,3,-1
 851 99 l 1,0,-1
EndSplineSet
EndChar

StartChar: Igrave
Encoding: 204 204 205
Width: 960
GlyphClass: 1
Flags: W
LayerCount: 2
Fore
SplineSet
851 99 m 1,0,-1
 851 -54 l 1,1,-1
 143 -54 l 1,2,-1
 143 99 l 1,3,-1
 851 99 l 1,0,-1
EndSplineSet
EndChar

StartChar: Iacute
Encoding: 205 205 206
Width: 960
GlyphClass: 1
Flags: W
LayerCount: 2
Fore
SplineSet
851 99 m 1,0,-1
 851 -54 l 1,1,-1
 143 -54 l 1,2,-1
 143 99 l 1,3,-1
 851 99 l 1,0,-1
EndSplineSet
EndChar

StartChar: Icircumflex
Encoding: 206 206 207
Width: 960
GlyphClass: 1
Flags: W
LayerCount: 2
Fore
SplineSet
851 99 m 1,0,-1
 851 -54 l 1,1,-1
 143 -54 l 1,2,-1
 143 99 l 1,3,-1
 851 99 l 1,0,-1
EndSplineSet
EndChar

StartChar: Idieresis
Encoding: 207 207 208
Width: 960
GlyphClass: 1
Flags: W
LayerCount: 2
Fore
SplineSet
851 99 m 1,0,-1
 851 -54 l 1,1,-1
 143 -54 l 1,2,-1
 143 99 l 1,3,-1
 851 99 l 1,0,-1
EndSplineSet
EndChar

StartChar: Eth
Encoding: 208 208 209
Width: 960
GlyphClass: 1
Flags: W
LayerCount: 2
Fore
SplineSet
851 99 m 1,0,-1
 851 -54 l 1,1,-1
 143 -54 l 1,2,-1
 143 99 l 1,3,-1
 851 99 l 1,0,-1
EndSplineSet
EndChar

StartChar: Ntilde
Encoding: 209 209 210
Width: 960
GlyphClass: 1
Flags: W
LayerCount: 2
Fore
SplineSet
851 99 m 1,0,-1
 851 -54 l 1,1,-1
 143 -54 l 1,2,-1
 143 99 l 1,3,-1
 851 99 l 1,0,-1
EndSplineSet
EndChar

StartChar: Ograve
Encoding: 210 210 211
Width: 960
GlyphClass: 1
Flags: W
LayerCount: 2
Fore
SplineSet
851 99 m 1,0,-1
 851 -54 l 1,1,-1
 143 -54 l 1,2,-1
 143 99 l 1,3,-1
 851 99 l 1,0,-1
EndSplineSet
EndChar

StartChar: Oacute
Encoding: 211 211 212
Width: 960
GlyphClass: 1
Flags: W
LayerCount: 2
Fore
SplineSet
851 99 m 1,0,-1
 851 -54 l 1,1,-1
 143 -54 l 1,2,-1
 143 99 l 1,3,-1
 851 99 l 1,0,-1
EndSplineSet
EndChar

StartChar: Ocircumflex
Encoding: 212 212 213
Width: 960
GlyphClass: 1
Flags: W
LayerCount: 2
Fore
SplineSet
851 99 m 1,0,-1
 851 -54 l 1,1,-1
 143 -54 l 1,2,-1
 143 99 l 1,3,-1
 851 99 l 1,0,-1
EndSplineSet
EndChar

StartChar: Otilde
Encoding: 213 213 214
Width: 960
GlyphClass: 1
Flags: W
LayerCount: 2
Fore
SplineSet
851 99 m 1,0,-1
 851 -54 l 1,1,-1
 143 -54 l 1,2,-1
 143 99 l 1,3,-1
 851 99 l 1,0,-1
EndSplineSet
EndChar

StartChar: Odieresis
Encoding: 214 214 215
Width: 960
GlyphClass: 1
Flags: W
LayerCount: 2
Fore
SplineSet
851 99 m 1,0,-1
 851 -54 l 1,1,-1
 143 -54 l 1,2,-1
 143 99 l 1,3,-1
 851 99 l 1,0,-1
EndSplineSet
EndChar

StartChar: multiply
Encoding: 215 215 216
Width: 960
GlyphClass: 1
Flags: W
LayerCount: 2
Fore
SplineSet
851 99 m 1,0,-1
 851 -54 l 1,1,-1
 143 -54 l 1,2,-1
 143 99 l 1,3,-1
 851 99 l 1,0,-1
EndSplineSet
EndChar

StartChar: Oslash
Encoding: 216 216 217
Width: 960
GlyphClass: 1
Flags: W
LayerCount: 2
Fore
SplineSet
851 99 m 1,0,-1
 851 -54 l 1,1,-1
 143 -54 l 1,2,-1
 143 99 l 1,3,-1
 851 99 l 1,0,-1
EndSplineSet
EndChar

StartChar: Ugrave
Encoding: 217 217 218
Width: 960
GlyphClass: 1
Flags: W
LayerCount: 2
Fore
SplineSet
851 99 m 1,0,-1
 851 -54 l 1,1,-1
 143 -54 l 1,2,-1
 143 99 l 1,3,-1
 851 99 l 1,0,-1
EndSplineSet
EndChar

StartChar: Uacute
Encoding: 218 218 219
Width: 960
GlyphClass: 1
Flags: W
LayerCount: 2
Fore
SplineSet
851 99 m 1,0,-1
 851 -54 l 1,1,-1
 143 -54 l 1,2,-1
 143 99 l 1,3,-1
 851 99 l 1,0,-1
EndSplineSet
EndChar

StartChar: Ucircumflex
Encoding: 219 219 220
Width: 960
GlyphClass: 1
Flags: W
LayerCount: 2
Fore
SplineSet
851 99 m 1,0,-1
 851 -54 l 1,1,-1
 143 -54 l 1,2,-1
 143 99 l 1,3,-1
 851 99 l 1,0,-1
EndSplineSet
EndChar

StartChar: Udieresis
Encoding: 220 220 221
Width: 960
GlyphClass: 1
Flags: W
LayerCount: 2
Fore
SplineSet
851 99 m 1,0,-1
 851 -54 l 1,1,-1
 143 -54 l 1,2,-1
 143 99 l 1,3,-1
 851 99 l 1,0,-1
EndSplineSet
EndChar

StartChar: Yacute
Encoding: 221 221 222
Width: 960
GlyphClass: 1
Flags: W
LayerCount: 2
Fore
SplineSet
851 99 m 1,0,-1
 851 -54 l 1,1,-1
 143 -54 l 1,2,-1
 143 99 l 1,3,-1
 851 99 l 1,0,-1
EndSplineSet
EndChar

StartChar: Thorn
Encoding: 222 222 223
Width: 960
GlyphClass: 1
Flags: W
LayerCount: 2
Fore
SplineSet
851 99 m 1,0,-1
 851 -54 l 1,1,-1
 143 -54 l 1,2,-1
 143 99 l 1,3,-1
 851 99 l 1,0,-1
EndSplineSet
EndChar

StartChar: germandbls
Encoding: 223 223 224
Width: 960
GlyphClass: 1
Flags: W
LayerCount: 2
Fore
SplineSet
851 99 m 1,0,-1
 851 -54 l 1,1,-1
 143 -54 l 1,2,-1
 143 99 l 1,3,-1
 851 99 l 1,0,-1
EndSplineSet
EndChar

StartChar: agrave
Encoding: 224 224 225
Width: 960
GlyphClass: 1
Flags: W
LayerCount: 2
Fore
SplineSet
851 99 m 1,0,-1
 851 -54 l 1,1,-1
 143 -54 l 1,2,-1
 143 99 l 1,3,-1
 851 99 l 1,0,-1
EndSplineSet
EndChar

StartChar: aacute
Encoding: 225 225 226
Width: 960
GlyphClass: 1
Flags: W
LayerCount: 2
Fore
SplineSet
851 99 m 1,0,-1
 851 -54 l 1,1,-1
 143 -54 l 1,2,-1
 143 99 l 1,3,-1
 851 99 l 1,0,-1
EndSplineSet
EndChar

StartChar: acircumflex
Encoding: 226 226 227
Width: 960
GlyphClass: 1
Flags: W
LayerCount: 2
Fore
SplineSet
851 99 m 1,0,-1
 851 -54 l 1,1,-1
 143 -54 l 1,2,-1
 143 99 l 1,3,-1
 851 99 l 1,0,-1
EndSplineSet
EndChar

StartChar: atilde
Encoding: 227 227 228
Width: 960
GlyphClass: 1
Flags: W
LayerCount: 2
Fore
SplineSet
851 99 m 1,0,-1
 851 -54 l 1,1,-1
 143 -54 l 1,2,-1
 143 99 l 1,3,-1
 851 99 l 1,0,-1
EndSplineSet
EndChar

StartChar: adieresis
Encoding: 228 228 229
Width: 960
GlyphClass: 1
Flags: W
LayerCount: 2
Fore
SplineSet
851 99 m 1,0,-1
 851 -54 l 1,1,-1
 143 -54 l 1,2,-1
 143 99 l 1,3,-1
 851 99 l 1,0,-1
EndSplineSet
EndChar

StartChar: aring
Encoding: 229 229 230
Width: 960
GlyphClass: 1
Flags: W
LayerCount: 2
Fore
SplineSet
851 99 m 1,0,-1
 851 -54 l 1,1,-1
 143 -54 l 1,2,-1
 143 99 l 1,3,-1
 851 99 l 1,0,-1
EndSplineSet
EndChar

StartChar: ae
Encoding: 230 230 231
Width: 960
GlyphClass: 1
Flags: W
LayerCount: 2
Fore
SplineSet
851 99 m 1,0,-1
 851 -54 l 1,1,-1
 143 -54 l 1,2,-1
 143 99 l 1,3,-1
 851 99 l 1,0,-1
EndSplineSet
EndChar

StartChar: ccedilla
Encoding: 231 231 232
Width: 960
GlyphClass: 1
Flags: W
LayerCount: 2
Fore
SplineSet
851 99 m 1,0,-1
 851 -54 l 1,1,-1
 143 -54 l 1,2,-1
 143 99 l 1,3,-1
 851 99 l 1,0,-1
EndSplineSet
EndChar

StartChar: egrave
Encoding: 232 232 233
Width: 960
GlyphClass: 1
Flags: W
LayerCount: 2
Fore
SplineSet
851 99 m 1,0,-1
 851 -54 l 1,1,-1
 143 -54 l 1,2,-1
 143 99 l 1,3,-1
 851 99 l 1,0,-1
EndSplineSet
EndChar

StartChar: eacute
Encoding: 233 233 234
Width: 960
GlyphClass: 1
Flags: W
LayerCount: 2
Fore
SplineSet
851 99 m 1,0,-1
 851 -54 l 1,1,-1
 143 -54 l 1,2,-1
 143 99 l 1,3,-1
 851 99 l 1,0,-1
EndSplineSet
EndChar

StartChar: ecircumflex
Encoding: 234 234 235
Width: 960
GlyphClass: 1
Flags: W
LayerCount: 2
Fore
SplineSet
851 99 m 1,0,-1
 851 -54 l 1,1,-1
 143 -54 l 1,2,-1
 143 99 l 1,3,-1
 851 99 l 1,0,-1
EndSplineSet
EndChar

StartChar: edieresis
Encoding: 235 235 236
Width: 960
GlyphClass: 1
Flags: W
LayerCount: 2
Fore
SplineSet
851 99 m 1,0,-1
 851 -54 l 1,1,-1
 143 -54 l 1,2,-1
 143 99 l 1,3,-1
 851 99 l 1,0,-1
EndSplineSet
EndChar

StartChar: igrave
Encoding: 236 236 237
Width: 960
GlyphClass: 1
Flags: W
LayerCount: 2
Fore
SplineSet
851 99 m 1,0,-1
 851 -54 l 1,1,-1
 143 -54 l 1,2,-1
 143 99 l 1,3,-1
 851 99 l 1,0,-1
EndSplineSet
EndChar

StartChar: iacute
Encoding: 237 237 238
Width: 960
GlyphClass: 1
Flags: W
LayerCount: 2
Fore
SplineSet
851 99 m 1,0,-1
 851 -54 l 1,1,-1
 143 -54 l 1,2,-1
 143 99 l 1,3,-1
 851 99 l 1,0,-1
EndSplineSet
EndChar

StartChar: icircumflex
Encoding: 238 238 239
Width: 960
GlyphClass: 1
Flags: W
LayerCount: 2
Fore
SplineSet
851 99 m 1,0,-1
 851 -54 l 1,1,-1
 143 -54 l 1,2,-1
 143 99 l 1,3,-1
 851 99 l 1,0,-1
EndSplineSet
EndChar

StartChar: idieresis
Encoding: 239 239 240
Width: 960
GlyphClass: 1
Flags: W
LayerCount: 2
Fore
SplineSet
851 99 m 1,0,-1
 851 -54 l 1,1,-1
 143 -54 l 1,2,-1
 143 99 l 1,3,-1
 851 99 l 1,0,-1
EndSplineSet
EndChar

StartChar: eth
Encoding: 240 240 241
Width: 960
GlyphClass: 1
Flags: W
LayerCount: 2
Fore
SplineSet
851 99 m 1,0,-1
 851 -54 l 1,1,-1
 143 -54 l 1,2,-1
 143 99 l 1,3,-1
 851 99 l 1,0,-1
EndSplineSet
EndChar

StartChar: ntilde
Encoding: 241 241 242
Width: 960
GlyphClass: 1
Flags: W
LayerCount: 2
Fore
SplineSet
851 99 m 1,0,-1
 851 -54 l 1,1,-1
 143 -54 l 1,2,-1
 143 99 l 1,3,-1
 851 99 l 1,0,-1
EndSplineSet
EndChar

StartChar: ograve
Encoding: 242 242 243
Width: 960
GlyphClass: 1
Flags: W
LayerCount: 2
Fore
SplineSet
851 99 m 1,0,-1
 851 -54 l 1,1,-1
 143 -54 l 1,2,-1
 143 99 l 1,3,-1
 851 99 l 1,0,-1
EndSplineSet
EndChar

StartChar: oacute
Encoding: 243 243 244
Width: 960
GlyphClass: 1
Flags: W
LayerCount: 2
Fore
SplineSet
851 99 m 1,0,-1
 851 -54 l 1,1,-1
 143 -54 l 1,2,-1
 143 99 l 1,3,-1
 851 99 l 1,0,-1
EndSplineSet
EndChar

StartChar: ocircumflex
Encoding: 244 244 245
Width: 960
GlyphClass: 1
Flags: W
LayerCount: 2
Fore
SplineSet
851 99 m 1,0,-1
 851 -54 l 1,1,-1
 143 -54 l 1,2,-1
 143 99 l 1,3,-1
 851 99 l 1,0,-1
EndSplineSet
EndChar

StartChar: otilde
Encoding: 245 245 246
Width: 960
GlyphClass: 1
Flags: W
LayerCount: 2
Fore
SplineSet
851 99 m 1,0,-1
 851 -54 l 1,1,-1
 143 -54 l 1,2,-1
 143 99 l 1,3,-1
 851 99 l 1,0,-1
EndSplineSet
EndChar

StartChar: odieresis
Encoding: 246 246 247
Width: 960
GlyphClass: 1
Flags: W
LayerCount: 2
Fore
SplineSet
851 99 m 1,0,-1
 851 -54 l 1,1,-1
 143 -54 l 1,2,-1
 143 99 l 1,3,-1
 851 99 l 1,0,-1
EndSplineSet
EndChar

StartChar: divide
Encoding: 247 247 248
Width: 960
GlyphClass: 1
Flags: W
LayerCount: 2
Fore
SplineSet
851 99 m 1,0,-1
 851 -54 l 1,1,-1
 143 -54 l 1,2,-1
 143 99 l 1,3,-1
 851 99 l 1,0,-1
EndSplineSet
EndChar

StartChar: oslash
Encoding: 248 248 249
Width: 960
GlyphClass: 1
Flags: W
LayerCount: 2
Fore
SplineSet
851 99 m 1,0,-1
 851 -54 l 1,1,-1
 143 -54 l 1,2,-1
 143 99 l 1,3,-1
 851 99 l 1,0,-1
EndSplineSet
EndChar

StartChar: ugrave
Encoding: 249 249 250
Width: 960
GlyphClass: 1
Flags: W
LayerCount: 2
Fore
SplineSet
851 99 m 1,0,-1
 851 -54 l 1,1,-1
 143 -54 l 1,2,-1
 143 99 l 1,3,-1
 851 99 l 1,0,-1
EndSplineSet
EndChar

StartChar: uacute
Encoding: 250 250 251
Width: 960
GlyphClass: 1
Flags: W
LayerCount: 2
Fore
SplineSet
851 99 m 1,0,-1
 851 -54 l 1,1,-1
 143 -54 l 1,2,-1
 143 99 l 1,3,-1
 851 99 l 1,0,-1
EndSplineSet
EndChar

StartChar: ucircumflex
Encoding: 251 251 252
Width: 960
GlyphClass: 1
Flags: W
LayerCount: 2
Fore
SplineSet
851 99 m 1,0,-1
 851 -54 l 1,1,-1
 143 -54 l 1,2,-1
 143 99 l 1,3,-1
 851 99 l 1,0,-1
EndSplineSet
EndChar

StartChar: udieresis
Encoding: 252 252 253
Width: 960
GlyphClass: 1
Flags: W
LayerCount: 2
Fore
SplineSet
851 99 m 1,0,-1
 851 -54 l 1,1,-1
 143 -54 l 1,2,-1
 143 99 l 1,3,-1
 851 99 l 1,0,-1
EndSplineSet
EndChar

StartChar: yacute
Encoding: 253 253 254
Width: 960
GlyphClass: 1
Flags: W
LayerCount: 2
Fore
SplineSet
851 99 m 1,0,-1
 851 -54 l 1,1,-1
 143 -54 l 1,2,-1
 143 99 l 1,3,-1
 851 99 l 1,0,-1
EndSplineSet
EndChar

StartChar: thorn
Encoding: 254 254 255
Width: 960
GlyphClass: 1
Flags: W
LayerCount: 2
Fore
SplineSet
851 99 m 1,0,-1
 851 -54 l 1,1,-1
 143 -54 l 1,2,-1
 143 99 l 1,3,-1
 851 99 l 1,0,-1
EndSplineSet
EndChar

StartChar: ydieresis
Encoding: 255 255 256
Width: 960
GlyphClass: 1
Flags: W
LayerCount: 2
Fore
SplineSet
851 99 m 1,0,-1
 851 -54 l 1,1,-1
 143 -54 l 1,2,-1
 143 99 l 1,3,-1
 851 99 l 1,0,-1
EndSplineSet
EndChar
